<?xml version="1.0" standalone="no"?>
<!DOCTYPE svg PUBLIC "-//W3C//DTD SVG 20010904//EN"
 "http://www.w3.org/TR/2001/REC-SVG-20010904/DTD/svg10.dtd">
<svg version="1.0" xmlns="http://www.w3.org/2000/svg"
 width="3164.000000pt" height="4096.000000pt" viewBox="0 0 3164.000000 4096.000000"
 preserveAspectRatio="xMidYMid meet">

<g transform="translate(0.000000,4096.000000) scale(0.100000,-0.100000)"
fill="#000000" stroke="none">
<path d="M15490 37761 c0 -5 28 -11 63 -13 34 -3 70 -8 80 -13 10 -4 17 -3 17
4 0 12 -21 17 -102 25 -32 4 -58 2 -58 -3z"/>
<path d="M15837 37669 c7 -7 15 -10 18 -7 3 3 -2 9 -12 12 -14 6 -15 5 -6 -5z"/>
<path d="M15072 37528 c-14 -14 -16 -38 -3 -38 5 0 11 11 13 25 6 29 6 29 -10
13z"/>
<path d="M15010 37408 c-40 -101 -50 -226 -23 -305 47 -136 229 -371 291 -375
30 -2 54 -5 62 -8 19 -7 162 -3 245 7 55 7 122 12 148 13 44 0 55 6 116 56
102 83 159 166 202 292 14 42 15 51 4 42 -10 -8 -19 -8 -33 -1 -11 6 -21 8
-24 6 -5 -6 -194 33 -216 44 -9 5 -44 17 -77 26 -33 10 -78 24 -100 31 -23 8
-57 14 -77 14 -20 0 -39 4 -42 9 -7 10 -55 11 -61 1 -3 -4 -26 -3 -52 1 -30 6
-57 6 -73 0 -36 -14 -161 1 -191 23 -32 23 -60 94 -54 136 3 22 2 47 -3 56 -6
12 -17 -5 -42 -68z"/>
<path d="M11818 35448 c-31 -48 -49 -90 -58 -139 -18 -92 36 -198 173 -347 96
-103 99 -113 86 -269 -14 -168 -44 -321 -139 -708 -43 -176 -86 -354 -94 -395
-8 -41 -31 -147 -50 -236 -41 -186 -56 -333 -55 -531 1 -123 -3 -154 -26 -239
-49 -181 -134 -336 -259 -470 -79 -85 -153 -136 -198 -136 -43 0 -134 35 -192
74 -65 42 -107 95 -207 259 -145 237 -156 250 -405 465 -102 88 -203 260 -204
344 0 19 14 73 31 120 78 212 82 258 34 357 -35 70 -126 153 -201 182 -81 32
-195 39 -265 16 -84 -28 -132 -73 -181 -172 -41 -83 -43 -90 -43 -177 0 -80 3
-98 29 -151 43 -87 114 -153 221 -206 128 -63 127 -60 175 -439 13 -111 79
-422 179 -845 44 -187 96 -419 116 -515 39 -190 93 -399 123 -476 10 -27 37
-80 60 -118 50 -82 103 -207 110 -258 7 -53 -4 -83 -44 -128 -45 -50 -105 -70
-336 -110 -178 -32 -408 -84 -653 -149 -82 -21 -319 -80 -525 -130 -521 -126
-563 -138 -665 -186 -108 -52 -120 -62 -222 -190 -152 -192 -141 -173 -312
-527 -127 -264 -154 -313 -351 -648 -135 -229 -236 -393 -440 -715 -126 -198
-430 -735 -529 -934 -29 -57 -91 -174 -138 -260 -116 -211 -212 -403 -266
-536 -79 -192 -140 -320 -349 -735 -227 -449 -275 -559 -390 -895 -103 -298
-177 -488 -289 -733 -16 -34 -29 -64 -29 -67 0 -2 -72 -172 -159 -377 -168
-394 -202 -486 -226 -612 -32 -164 -12 -261 62 -310 21 -14 86 -44 143 -66
116 -45 265 -116 380 -182 70 -40 76 -47 90 -92 13 -43 30 -63 158 -180 182
-167 276 -245 432 -358 172 -125 356 -270 535 -418 83 -69 233 -190 335 -270
375 -297 547 -435 625 -505 44 -39 123 -107 175 -150 141 -118 643 -559 660
-580 8 -10 134 -127 280 -260 330 -302 587 -551 1285 -1250 303 -302 596 -604
651 -670 56 -66 145 -167 200 -226 148 -158 237 -258 374 -424 69 -82 190
-224 271 -315 140 -157 320 -372 438 -525 30 -39 118 -146 196 -240 169 -203
273 -340 471 -621 270 -382 352 -497 504 -704 273 -371 243 -324 589 -908 89
-151 210 -362 268 -470 58 -109 122 -226 143 -262 21 -36 90 -166 155 -290 65
-124 162 -304 215 -400 144 -259 271 -511 414 -825 71 -154 205 -435 300 -625
95 -190 212 -437 261 -550 182 -419 276 -607 313 -621 35 -13 46 0 168 183
114 170 174 280 251 464 200 472 703 1496 993 2019 98 177 144 257 206 355 39
63 111 185 159 270 154 273 339 576 485 795 36 55 127 197 200 315 129 206
349 515 559 780 54 69 149 197 211 285 62 88 138 194 169 235 137 181 281 367
426 550 50 63 125 160 165 215 119 160 290 373 375 465 43 47 133 148 199 224
253 292 328 376 472 531 210 226 310 338 379 425 88 111 105 128 685 710 531
531 604 606 793 813 55 59 191 186 302 282 112 96 255 230 317 297 159 172
281 293 448 448 80 74 240 229 355 345 209 209 365 343 863 739 234 185 321
245 599 412 123 73 249 151 282 173 78 53 243 193 268 226 15 21 34 30 87 41
38 8 139 35 225 60 297 88 389 128 419 184 35 67 -36 488 -132 775 -24 72 -90
234 -146 360 -56 127 -138 322 -182 435 -44 113 -116 288 -160 390 -44 102
-117 277 -163 390 -128 318 -187 446 -318 700 -151 292 -171 331 -415 830
-109 223 -242 482 -296 575 -53 94 -167 310 -253 480 -218 433 -284 551 -443
790 -145 218 -326 533 -560 975 -51 96 -126 233 -168 305 -41 71 -108 195
-150 275 -231 446 -289 493 -750 600 -261 61 -642 134 -902 174 -372 57 -844
106 -1022 106 -84 0 -101 3 -117 19 -28 28 -72 173 -78 258 l-6 71 70 74 c122
129 158 195 237 426 150 441 225 821 286 1454 24 254 24 248 6 223 -8 -11 -12
-24 -8 -29 3 -5 -2 -7 -11 -3 -10 3 -17 3 -18 -1 -3 -32 -10 -48 -26 -60 -10
-7 -17 -14 -15 -15 5 -3 -9 -60 -18 -72 -8 -10 -39 -109 -44 -135 -1 -8 -7
-24 -13 -35 -6 -11 -13 -37 -17 -57 -4 -21 -11 -38 -16 -38 -6 0 -10 -8 -10
-19 0 -10 -8 -29 -19 -42 -10 -13 -16 -30 -14 -36 3 -7 0 -13 -6 -13 -6 0 -11
-5 -11 -10 0 -6 -8 -23 -19 -38 -29 -42 -55 -86 -57 -94 -1 -5 -2 -12 -3 -18
0 -5 -8 -10 -17 -10 -9 0 -18 -9 -21 -20 -3 -11 -9 -20 -14 -20 -4 0 -11 -16
-15 -35 -3 -19 -10 -32 -15 -29 -5 3 -9 1 -9 -4 0 -16 -57 -72 -73 -72 -10 0
-17 -8 -17 -20 0 -11 -6 -20 -12 -20 -9 0 -8 -4 2 -10 13 -8 12 -10 -4 -10
-10 0 -27 -10 -37 -22 -20 -22 -26 -58 -10 -58 5 0 7 -10 3 -22 -5 -19 -4 -20
10 -8 9 8 13 21 11 27 -4 9 5 13 26 13 25 0 31 4 29 18 -2 13 4 17 27 17 l30
0 1 -165 c1 -91 5 -196 9 -235 11 -109 9 -199 -4 -203 -6 -2 -11 -12 -11 -21
0 -27 -29 -47 -87 -61 -82 -19 -170 5 -223 60 -42 44 -60 74 -60 98 0 9 -7 27
-15 39 -10 15 -12 24 -5 28 7 4 8 11 2 18 -5 7 -8 28 -7 47 4 42 5 116 3 148
-1 12 -10 25 -20 28 -10 3 -18 12 -18 20 0 8 -4 14 -9 14 -5 0 -23 13 -40 29
-18 17 -34 30 -36 31 -32 7 -64 24 -62 33 1 6 -12 11 -29 13 -17 1 -47 9 -66
18 -20 10 -50 19 -67 21 -17 2 -36 7 -41 10 -6 3 -10 2 -10 -4 0 -6 -7 -8 -15
-5 -8 4 -15 1 -15 -5 0 -6 -5 -11 -10 -11 -6 0 -3 11 5 24 16 24 16 24 -7 18
-13 -3 -28 -13 -35 -21 -8 -11 -12 -12 -13 -3 0 6 -9 12 -21 12 -19 0 -20 -4
-15 -62 l6 -63 75 -69 c42 -38 84 -85 95 -105 26 -52 65 -177 95 -306 14 -60
39 -164 55 -231 17 -67 30 -131 30 -142 0 -19 6 -22 38 -22 128 0 190 -76 142
-175 -23 -48 -174 -191 -265 -251 -46 -30 -58 -33 -147 -37 -59 -3 -100 -1
-106 5 -8 8 -9 5 -6 -8 3 -11 17 -25 32 -32 15 -6 38 -22 52 -35 14 -12 57
-43 95 -68 39 -25 96 -63 128 -84 78 -51 128 -113 134 -168 4 -35 1 -44 -16
-55 -26 -15 -182 -18 -210 -3 -11 6 -31 11 -45 11 -14 0 -46 7 -72 16 -48 16
-100 25 -142 24 -13 0 -21 4 -18 9 3 5 -4 9 -17 9 -12 0 -44 5 -70 10 -27 5
-57 7 -68 5 -11 -3 -21 1 -25 11 -3 9 -10 16 -14 16 -18 0 16 -49 37 -55 13
-3 24 -5 25 -4 2 0 28 -9 58 -21 30 -12 70 -27 89 -32 19 -6 62 -23 95 -39 33
-16 63 -29 67 -29 13 0 205 -107 228 -127 58 -49 -11 -42 -199 21 -228 75
-500 153 -700 200 -63 15 -131 32 -150 36 -71 18 -128 29 -240 50 -63 12 -135
25 -160 30 -63 13 -341 58 -425 69 -371 50 -470 63 -600 76 -82 8 -240 21
-350 30 -110 8 -256 20 -325 25 -144 12 -562 15 -602 5 -16 -4 -28 -12 -28
-19 1 -6 26 -38 56 -71 84 -90 109 -149 109 -260 0 -83 -3 -95 -34 -152 -35
-66 -68 -97 -185 -176 -39 -27 -75 -55 -79 -63 -4 -8 -15 -14 -22 -14 -8 0
-15 -5 -15 -11 0 -5 5 -7 10 -4 6 3 10 3 10 -2 1 -4 25 -24 55 -43 65 -42 84
-77 67 -124 -7 -18 -12 -68 -12 -112 0 -53 -5 -87 -14 -99 -12 -17 -12 -21 3
-31 13 -10 16 -37 19 -166 2 -111 -1 -160 -11 -178 -7 -14 -44 -46 -82 -72
-79 -55 -81 -65 -2 -14 28 19 61 37 73 40 19 6 22 1 28 -40 3 -26 6 -113 6
-194 0 -146 0 -148 -26 -174 l-27 -26 30 6 c40 8 43 -3 43 -198 0 -142 -2
-160 -21 -193 -23 -39 -20 -65 10 -65 17 0 20 -10 26 -97 5 -68 4 -107 -5
-131 -9 -26 -9 -40 0 -63 11 -26 10 -33 -14 -67 -31 -46 -32 -59 -6 -67 18 -6
25 -28 20 -64 -1 -8 4 -17 10 -21 6 -4 12 -17 13 -28 1 -12 4 -22 8 -22 9 0
49 -68 49 -84 0 -6 6 -18 12 -24 7 -7 13 -20 13 -30 0 -9 6 -16 12 -15 14 3
28 -40 18 -56 -3 -6 0 -8 8 -5 8 3 17 -1 20 -8 4 -11 -8 -12 -57 -7 -33 3 -63
5 -66 3 -3 -1 -3 -27 -2 -57 4 -63 -2 -60 131 -76 118 -15 181 12 353 151 100
80 191 180 255 278 20 30 49 74 65 98 36 55 35 94 -2 157 -35 58 -39 117 -13
164 17 29 17 32 -1 63 -24 42 -132 204 -218 328 -104 149 -408 646 -408 666 0
19 39 -33 122 -164 246 -385 493 -745 547 -796 32 -31 43 -30 93 6 50 36 236
-127 238 -209 0 -20 -123 -175 -147 -184 -14 -5 -48 -9 -78 -9 -48 0 -53 -2
-59 -25 -4 -14 -11 -23 -16 -20 -6 4 -16 -7 -23 -24 -7 -17 -16 -28 -20 -25
-3 4 -12 -5 -18 -20 -7 -14 -16 -26 -20 -26 -5 0 -16 -15 -24 -32 -8 -18 -24
-46 -35 -63 -30 -46 -33 -54 -22 -68 6 -7 9 -22 6 -34 -4 -15 0 -22 16 -26 12
-3 19 -10 16 -15 -3 -5 2 -9 12 -8 10 0 16 -5 14 -15 -2 -13 6 -16 43 -14 40
1 45 -1 45 -20 0 -12 6 -22 13 -23 6 0 29 -4 49 -8 28 -5 49 -1 83 15 39 18
49 29 47 52 0 3 11 5 26 5 17 0 36 -10 49 -25 28 -32 29 -27 3 27 -11 22 -20
48 -20 56 0 8 -4 17 -9 20 -11 7 -2 56 10 56 5 0 17 -4 27 -9 9 -5 25 -12 36
-15 16 -5 16 -9 5 -23 -10 -12 -10 -14 -1 -9 8 5 12 0 12 -17 0 -15 7 -27 18
-31 9 -3 24 -11 33 -17 14 -10 20 -9 34 4 9 9 27 17 40 17 13 0 26 4 29 9 3 5
33 7 66 4 57 -6 62 -4 86 23 14 16 37 45 50 65 26 37 102 107 139 127 33 17
107 -4 153 -44 22 -19 46 -34 54 -34 7 0 37 45 66 101 30 55 67 115 83 134
l30 34 -15 51 c-9 29 -25 67 -37 86 l-21 35 26 37 c42 61 112 136 143 154 27
15 31 15 63 0 19 -9 60 -41 91 -72 86 -85 90 -147 16 -225 -33 -33 -57 -48
-112 -64 -78 -24 -130 -66 -140 -112 -4 -16 -26 -49 -50 -75 -39 -41 -53 -63
-87 -144 -6 -14 -19 -42 -30 -62 -11 -21 -17 -38 -14 -38 9 0 -72 -150 -87
-161 -5 -3 -9 -12 -10 -20 -2 -8 -7 -21 -12 -29 -13 -20 -15 -41 -4 -34 14 8
11 -20 -3 -34 -9 -9 -10 -15 -2 -20 6 -4 12 -29 13 -57 1 -27 4 -61 6 -75 1
-14 4 -54 5 -90 2 -36 5 -53 7 -38 2 14 10 32 18 38 11 9 12 7 8 -8 -2 -10 3
-36 11 -57 9 -20 13 -41 10 -46 -3 -5 -2 -9 3 -9 4 0 13 -12 20 -26 9 -20 9
-26 -2 -30 -20 -8 -27 -34 -14 -51 7 -7 9 -17 5 -21 -16 -15 -156 -5 -266 20
-207 48 -448 76 -845 99 -253 14 -305 19 -305 30 0 5 12 19 26 32 35 29 60 77
41 77 -14 0 -44 -38 -100 -125 -51 -80 -428 -452 -542 -535 -55 -41 -102 -75
-104 -77 -2 -2 -2 -5 0 -7 4 -4 165 98 213 136 22 16 28 18 24 7 -12 -30 -95
-154 -147 -219 -41 -50 -28 -40 58 48 68 69 111 121 111 134 0 29 30 68 169
218 70 74 150 163 180 198 l54 62 76 0 c89 0 653 -52 821 -75 158 -22 300 -59
300 -77 0 -4 6 -8 13 -8 16 0 51 -58 54 -89 1 -13 7 -28 14 -31 6 -4 9 -12 6
-17 -3 -5 -1 -40 4 -78 17 -120 23 -139 55 -155 13 -8 23 -15 21 -16 -4 -4
-209 19 -372 41 -217 29 -425 40 -757 40 l-338 0 -44 -48 -44 -49 24 -64 c13
-35 37 -89 53 -119 26 -49 28 -59 19 -92 -6 -21 -24 -49 -41 -64 l-30 -25 49
-64 c27 -35 93 -114 147 -175 206 -229 301 -375 246 -375 -4 0 -37 44 -73 99
-40 61 -124 160 -218 260 -137 145 -176 176 -152 123 4 -9 8 -19 9 -22 28 -88
36 -127 33 -162 -2 -35 -7 -44 -24 -46 -16 -2 -24 4 -32 26 -7 20 -17 30 -29
29 -24 -3 -32 -15 -34 -57 -2 -27 -3 -29 -6 -9 -2 14 0 45 6 68 6 26 6 40 0
34 -18 -18 -50 -216 -43 -268 13 -92 11 -145 -6 -146 -8 0 -10 -3 -4 -5 14 -6
7 -371 -8 -401 -9 -19 -14 -21 -27 -10 -14 11 -15 10 -1 -7 8 -11 25 -30 38
-42 12 -13 22 -29 22 -37 0 -7 14 -20 31 -28 24 -11 37 -28 55 -74 28 -71 27
-65 11 -65 -13 0 -78 81 -90 113 -9 23 -37 33 -47 16 -11 -16 6 -49 24 -49 15
0 50 -65 42 -78 -3 -5 -6 -114 -7 -243 l-1 -234 28 -1 c16 -1 130 -4 254 -8
350 -10 522 -15 835 -26 383 -13 779 -17 941 -10 117 6 136 9 179 33 26 15 50
25 52 23 3 -3 -30 -42 -73 -87 -139 -150 -158 -225 -159 -646 l0 -263 -296 0
c-163 0 -298 2 -301 5 -3 3 3 34 14 68 15 48 19 82 16 149 -4 75 -9 96 -41
162 -95 191 -226 255 -565 278 -353 23 -638 -22 -857 -135 -98 -51 -373 -235
-720 -481 -143 -102 -359 -254 -480 -338 -354 -245 -625 -450 -625 -473 0 -25
185 -175 382 -311 157 -108 348 -250 477 -354 79 -63 190 -151 247 -195 113
-88 413 -329 513 -414 128 -107 337 -231 523 -310 156 -66 208 -75 403 -74
257 2 393 36 488 123 81 74 146 213 148 314 1 65 17 92 18 30 2 -119 -53 -287
-117 -360 -134 -152 -568 -216 -842 -125 -172 58 -424 195 -592 322 -110 83
-355 281 -443 358 -74 64 -85 70 -85 46 0 -8 9 -15 20 -15 11 0 19 -4 17 -9
-1 -5 19 -30 45 -55 34 -32 46 -50 41 -62 -4 -12 -3 -15 5 -10 7 4 12 1 12 -8
0 -9 5 -16 11 -16 5 0 7 -5 4 -11 -5 -6 -12 -4 -21 8 -13 17 -13 17 -14 0 0
-10 -9 -27 -20 -39 -11 -12 -20 -30 -20 -40 0 -10 -3 -17 -7 -17 -28 5 -51 -3
-49 -16 3 -22 16 -31 16 -11 0 13 4 15 18 7 11 -6 25 -6 37 0 20 10 20 10 0
-6 -11 -8 -26 -13 -33 -10 -8 3 -12 0 -9 -7 2 -7 13 -12 23 -10 15 2 16 1 4
-7 -8 -6 -19 -6 -25 -1 -13 11 -45 -12 -45 -33 0 -10 -5 -14 -15 -11 -10 4
-20 -4 -30 -27 -10 -25 -15 -29 -15 -14 -1 11 -4 14 -7 8 -2 -7 -9 -13 -14
-13 -16 0 2 28 24 35 22 7 22 8 -3 12 -13 3 -26 0 -28 -6 -2 -6 -14 -11 -27
-11 -13 0 -25 -5 -27 -11 -2 -6 -14 -2 -28 10 -14 11 -19 20 -12 21 7 0 10 5
6 11 -4 8 -9 7 -15 -2 -7 -11 -12 -12 -29 -1 -31 19 -45 15 -25 -8 24 -27 14
-35 -13 -10 -12 11 -24 20 -27 20 -4 0 -21 14 -38 30 -53 50 -61 56 -82 64
-15 5 -16 9 -6 15 9 6 10 11 2 15 -6 4 -15 5 -20 2 -4 -3 -17 1 -27 9 -11 8
-14 14 -6 15 6 0 12 5 12 11 0 6 -8 8 -19 4 -15 -4 -32 7 -67 44 -26 28 -51
48 -55 45 -4 -2 -11 1 -16 9 -4 7 -19 18 -33 25 -26 13 -68 41 -130 87 -19 14
-56 42 -82 61 -27 19 -48 30 -48 25 0 -6 -8 -8 -17 -4 -18 6 -122 83 -158 116
-11 11 -36 31 -55 45 -19 15 -65 50 -102 79 -37 29 -73 50 -81 48 -17 -7 -67
31 -67 51 0 8 -3 13 -7 12 -14 -3 -43 14 -38 22 3 4 -2 11 -11 14 -10 4 -13 2
-7 -7 4 -6 -7 -1 -24 13 -18 14 -48 36 -67 50 -20 14 -38 33 -41 42 -4 10 -19
18 -38 20 -19 2 -31 8 -30 16 2 7 -8 12 -27 12 -17 0 -30 -5 -30 -11 0 -5 -5
-7 -11 -4 -6 4 -8 10 -4 13 3 4 -15 14 -42 22 -41 14 -52 14 -76 2 -20 -9 -32
-10 -41 -3 -10 8 -26 4 -60 -14 -25 -13 -46 -22 -46 -19 0 3 -13 -4 -29 -15
-15 -11 -31 -18 -35 -14 -3 3 -6 2 -6 -4 0 -6 -11 -8 -25 -5 -14 2 -25 0 -25
-7 0 -6 -7 -8 -17 -4 -9 4 -14 2 -10 -3 3 -5 -12 -9 -34 -9 -28 0 -39 4 -39
15 0 11 -3 11 -8 3 -8 -13 -141 -15 -158 -2 -5 4 -21 2 -35 -5 -13 -7 -30 -11
-37 -8 -6 2 -12 0 -12 -5 0 -16 -92 -14 -118 3 -24 16 -25 15 -20 -2 4 -15 -1
-19 -24 -20 -15 -1 -36 -9 -46 -18 -10 -9 -21 -13 -25 -10 -3 3 -12 1 -19 -5
-7 -7 -21 -17 -31 -24 -10 -7 -19 -22 -20 -34 0 -12 -4 -20 -7 -18 -3 2 -15
-18 -25 -45 -10 -27 -22 -47 -26 -45 -7 5 -23 -51 -36 -125 -4 -25 -11 425
-14 1000 -6 1136 -4 1094 -63 1240 -15 36 -42 89 -62 118 l-35 53 488 -7 c268
-3 490 -9 493 -11 7 -7 -52 -53 -67 -53 -32 0 -45 -98 -63 -495 -16 -334 -11
-1145 7 -1145 19 0 219 138 348 240 61 48 148 113 195 145 423 292 906 656
1164 878 150 129 457 332 621 411 111 54 282 113 353 122 29 4 54 10 57 14 9
14 -170 -21 -258 -50 -129 -44 -217 -87 -379 -186 -180 -110 -399 -256 -417
-278 -18 -22 -34 -21 -23 2 15 29 14 105 -2 150 -8 23 -15 45 -15 47 0 20 -14
75 -19 71 -3 -3 -12 4 -20 15 -12 17 -16 18 -23 8 -5 -8 -9 -25 -9 -39 0 -14
-4 -20 -8 -14 -4 6 -15 14 -25 17 -10 4 -17 13 -15 19 3 7 -6 24 -19 38 -15
16 -23 37 -23 60 -1 65 -9 237 -12 251 -2 8 -11 17 -20 21 -26 10 -22 27 4 20
12 -3 19 -1 15 5 -3 5 1 22 9 37 7 16 14 33 14 38 0 5 7 16 15 24 8 8 12 21 8
29 -4 11 -1 13 11 9 10 -4 16 -1 17 10 2 21 3 26 19 61 17 37 16 34 25 175 3
63 9 118 11 122 13 21 23 4 19 -29 -3 -29 -2 -34 6 -20 14 23 29 12 29 -20 0
-51 11 -15 16 53 6 91 -7 347 -17 314 -7 -24 -7 -24 -9 5 -1 17 -3 39 -5 49
-2 11 -5 44 -6 75 -2 31 -8 75 -15 98 -8 24 -9 45 -4 48 15 9 0 34 -16 28 -12
-4 -14 0 -8 21 4 16 2 26 -5 26 -6 0 -11 -16 -11 -36 0 -19 4 -33 8 -30 4 2 8
-4 8 -14 0 -10 -4 -16 -8 -14 -4 3 -8 0 -8 -5 0 -6 8 -11 18 -11 13 0 14 -2 3
-9 -7 -5 -11 -13 -8 -18 4 -6 0 -19 -8 -29 -8 -11 -14 -14 -15 -6 0 6 -5 12
-10 12 -7 0 -7 -6 0 -19 5 -11 10 -23 10 -28 -1 -4 -7 3 -14 16 -9 15 -11 34
-6 50 4 15 3 36 -1 49 -5 12 -6 28 -4 35 3 6 1 18 -4 26 -12 18 -45 6 -37 -14
3 -8 1 -15 -4 -15 -10 0 -14 15 -11 34 1 5 -1 16 -5 25 -4 9 -8 19 -9 24 -2 4
-4 10 -5 15 -1 4 -1 15 0 26 1 12 -2 16 -11 10 -8 -5 -11 -2 -6 8 3 9 0 21 -6
28 -10 10 -8 12 6 7 13 -5 16 -3 10 6 -4 6 -8 41 -8 77 0 52 -3 65 -17 68 -9
2 -22 -7 -30 -21 -7 -14 -47 -64 -88 -112 -41 -48 -87 -102 -102 -120 l-28
-33 30 -12 c26 -11 30 -18 30 -51 0 -22 -4 -39 -9 -39 -9 0 -91 78 -91 87 0 8
52 75 126 163 39 47 78 99 87 115 23 46 45 141 52 225 9 113 15 140 29 140 8
0 12 9 9 23 -2 15 16 52 57 115 51 78 59 96 50 113 -6 10 -9 23 -6 28 7 10
-49 9 -60 -1 -12 -13 -34 20 -34 51 l0 31 -192 0 c-171 -1 -285 -4 -703 -24
-70 -4 -101 -2 -85 3 14 5 39 9 56 10 17 1 39 10 48 20 10 11 31 23 47 26 16
4 37 17 46 29 15 18 36 32 58 36 2 1 23 19 46 41 23 21 45 39 49 39 4 0 15 18
25 40 10 22 21 37 26 35 4 -3 20 9 36 26 63 70 107 109 125 109 6 0 26 11 45
26 18 14 38 22 43 19 6 -3 17 1 25 9 9 8 31 18 50 22 25 4 32 10 28 21 -5 13
-3 14 18 2 13 -7 27 -13 31 -14 4 0 103 -98 220 -217 167 -171 220 -219 246
-224 18 -4 35 -11 38 -15 3 -5 18 -9 33 -9 31 0 99 -48 209 -147 108 -97 163
-142 195 -159 52 -28 39 -7 -32 52 -154 130 -693 628 -840 778 -94 96 -124
117 -143 98 -6 -6 1 -21 20 -43 48 -56 47 -66 -5 -73 -25 -3 -74 -6 -109 -6
-34 0 -147 -9 -251 -19 -103 -11 -262 -27 -353 -36 -259 -25 -454 -51 -664
-88 -6 -1 -11 5 -11 13 0 9 11 16 25 18 28 3 211 34 340 57 230 41 265 53 361
120 25 18 55 36 67 39 12 4 22 13 22 20 0 7 16 20 35 29 19 9 35 21 35 26 0 5
18 18 40 30 23 12 74 54 114 94 40 39 83 81 97 92 13 12 34 32 45 45 53 61
145 128 206 149 16 6 27 14 25 18 -3 5 6 9 20 10 19 1 22 -1 12 -8 -11 -7 -11
-9 3 -9 20 0 108 -57 108 -70 0 -5 28 -23 63 -39 63 -30 204 -61 278 -61 35 0
39 3 39 25 0 14 11 58 25 97 14 39 25 80 25 90 0 17 -5 16 -37 -11 -20 -17
-39 -29 -41 -26 -3 2 14 27 37 56 22 28 41 62 41 74 0 12 13 39 30 60 l30 38
-24 22 c-30 28 -45 137 -27 203 6 23 11 67 11 98 0 45 -4 59 -22 74 l-22 17
18 73 c9 40 26 92 38 116 17 38 20 59 17 161 -3 117 2 168 22 205 13 24 17
102 17 298 -1 358 4 639 12 695 8 53 6 66 -16 111 -13 28 -24 56 -24 62 0 6
-9 27 -20 46 -19 34 -19 37 -2 66 l17 30 -66 64 c-83 81 -115 136 -129 220
-23 144 12 249 110 332 64 56 71 64 68 81 -3 15 -18 19 -83 26 -115 12 -705
10 -945 -2 -394 -21 -794 -49 -1020 -71 -225 -23 -526 -51 -703 -65 -60 -5
-71 9 -15 18 18 3 103 22 188 42 301 70 724 128 1120 154 91 6 226 16 300 21
387 28 570 33 1215 33 680 0 966 -6 1260 -24 201 -12 501 -29 603 -33 69 -3
82 -1 78 11 -4 9 -2 11 5 7 7 -4 10 -2 8 5 -3 7 -9 13 -14 13 -6 0 -19 5 -30
11 -22 12 -38 15 -145 28 -41 5 -109 16 -150 24 -81 15 -134 21 -275 31 -49 3
-92 7 -95 9 -9 5 -137 14 -305 21 -88 3 -176 8 -195 10 -87 10 -320 15 -900
21 -518 5 -668 3 -875 -11 -137 -9 -295 -18 -350 -22 -55 -3 -118 -7 -140 -9
-146 -14 -274 -25 -360 -31 -55 -3 -102 -7 -105 -9 -9 -6 -247 -19 -525 -30
-143 -6 -394 -22 -475 -31 -25 -2 -121 -7 -213 -9 -158 -5 -167 -4 -158 13 10
20 70 41 218 77 131 33 612 133 743 155 25 4 106 21 180 38 199 45 306 62 550
82 74 7 138 14 141 16 4 2 51 6 105 9 55 3 178 12 274 20 229 18 352 26 695
40 72 3 153 8 180 10 46 4 416 17 547 19 32 1 58 4 58 7 0 3 10 5 23 3 64 -9
116 -11 112 -3 -3 4 -1 10 5 14 6 3 13 -1 16 -9 3 -9 10 -14 14 -11 5 3 11 1
14 -4 3 -4 20 -7 38 -5 54 7 112 13 126 13 7 1 10 6 6 12 -4 8 0 9 15 4 15 -4
21 -2 21 8 0 17 -32 24 -145 33 -44 3 -84 9 -90 12 -19 13 -310 29 -545 31
-214 1 -596 -10 -810 -24 -353 -23 -582 -40 -695 -50 -149 -14 -253 -20 -367
-20 -106 0 -130 3 -144 17 -14 14 -15 20 -4 32 17 21 8 30 -105 121 -89 71
-121 100 -248 221 -124 119 -141 159 -87 214 16 16 33 30 37 30 4 0 27 17 51
38 41 35 46 47 123 272 115 337 235 628 273 659 7 6 43 4 96 -6 51 -9 147 -16
240 -17 l155 -1 58 33 c33 18 91 57 130 85 135 99 145 102 204 66 44 -27 145
-158 227 -293 70 -116 100 -157 187 -256 104 -119 229 -299 229 -330 0 -46 21
-54 100 -36 14 3 37 1 53 -5 36 -15 36 -51 -1 -110 -40 -63 -212 -288 -296
-388 -91 -107 -99 -118 -92 -130 8 -13 60 -20 206 -26 69 -3 148 -8 175 -12
84 -10 528 -6 719 6 235 16 263 19 280 37 8 8 19 14 25 14 11 0 -3 59 -16 69
-5 3 -27 31 -50 61 -23 30 -81 102 -127 160 -110 135 -183 241 -192 274 -8 34
24 71 75 86 97 30 158 65 192 111 19 25 99 117 179 204 158 172 218 247 324
403 97 144 143 194 169 186 25 -8 100 -55 199 -126 41 -30 99 -64 128 -77 51
-22 59 -23 154 -12 56 5 155 24 220 40 65 17 123 28 127 25 11 -6 38 -68 95
-217 56 -146 196 -547 197 -564 0 -7 4 -13 9 -13 4 0 8 -6 8 -14 0 -7 6 -19
14 -25 8 -7 21 -27 30 -45 10 -22 25 -36 43 -40 42 -10 153 -66 194 -97 19
-15 75 -47 124 -70 l89 -43 171 3 c186 3 212 5 236 15 9 4 20 6 25 5 33 -6 46
6 226 203 114 126 247 260 310 313 38 31 45 42 36 53 -9 10 -9 15 1 21 9 6 4
12 -18 22 -17 8 -31 19 -31 26 0 16 -44 38 -93 47 -21 4 -46 10 -54 13 -12 5
-14 3 -8 -8 8 -12 6 -12 -8 0 -11 8 -17 9 -17 2 0 -7 -8 -8 -25 -1 -18 7 -23
6 -19 -3 3 -8 -4 -13 -15 -13 -11 0 -18 3 -15 7 2 4 -2 10 -8 12 -10 4 -10 6
0 6 6 1 12 5 12 9 0 5 -10 8 -22 7 -15 -1 -22 -8 -22 -19 2 -24 -9 -19 -22 8
-8 17 -8 28 -1 35 7 7 3 8 -12 4 -22 -6 -26 -19 -12 -42 5 -8 3 -24 -5 -40 -8
-14 -14 -34 -14 -43 0 -10 -5 -18 -10 -18 -6 0 -9 -5 -8 -11 4 -19 -72 -66
-132 -83 -79 -22 -157 -19 -305 14 -71 15 -168 31 -215 35 -47 3 -101 11 -120
17 -55 16 -110 41 -110 50 0 4 -6 8 -13 8 -37 0 -132 130 -106 145 5 4 7 10 4
15 -14 22 32 131 98 232 39 59 74 108 79 108 4 0 8 4 8 9 0 14 53 91 62 91 5
0 7 9 3 19 -4 14 0 21 15 26 12 4 19 12 16 20 -3 8 1 19 9 25 18 15 10 81 -10
93 -22 12 -18 25 8 31 12 2 -4 3 -35 1 -31 -3 -60 0 -63 5 -3 6 2 7 12 4 14
-5 15 -4 4 4 -14 10 -50 1 -100 -24 -20 -10 -28 -11 -40 -1 -10 8 -13 8 -8 1
4 -7 0 -14 -8 -18 -8 -3 -15 -1 -15 3 0 5 -11 8 -25 7 -14 0 -25 -4 -25 -8 0
-4 -12 -3 -26 2 -17 7 -32 6 -46 -1 -18 -9 -20 -9 -15 4 4 11 2 14 -8 10 -8
-3 -13 -9 -10 -13 3 -5 1 -11 -5 -15 -5 -3 -10 0 -10 8 0 8 -6 20 -14 26 -11
9 -15 8 -20 -5 -6 -15 -8 -15 -26 1 -13 11 -20 14 -20 6 0 -7 -5 -9 -11 -5
-16 10 -139 11 -145 2 -3 -5 -13 -4 -23 2 -10 5 -21 7 -24 4 -13 -14 -82 -22
-94 -12 -9 7 -13 7 -13 0 0 -15 -69 8 -108 36 -18 13 -39 21 -47 18 -9 -3 -12
0 -9 8 3 8 -4 16 -15 19 -12 3 -21 1 -21 -3 0 -5 -12 2 -26 15 -15 14 -31 25
-35 25 -5 0 -8 4 -6 8 1 4 -17 27 -40 49 -24 23 -43 48 -43 54 0 17 -100 110
-111 104 -5 -3 -6 0 -3 8 6 18 -63 78 -81 70 -7 -2 -16 5 -20 16 -3 12 -11 21
-16 21 -5 0 -9 8 -10 18 0 9 -3 12 -5 6 -7 -16 -72 49 -80 80 -3 14 -9 26 -13
26 -9 0 -31 92 -31 130 0 35 -28 146 -45 180 -7 14 -15 39 -16 55 -2 17 -12
36 -22 43 -9 7 -15 18 -12 23 4 5 1 9 -4 9 -6 0 -10 3 -9 8 1 4 -3 17 -10 30
-7 12 -11 26 -8 31 3 4 -1 17 -9 27 -8 10 -15 29 -15 42 0 12 -4 22 -10 22 -5
0 -10 6 -10 14 0 8 -9 17 -19 21 -11 3 -22 13 -25 21 -3 8 -10 12 -16 9 -5 -3
-10 3 -10 14 0 14 -9 23 -27 27 -31 8 -83 59 -83 82 0 8 -6 12 -15 8 -11 -4
-15 2 -15 20 0 19 -4 25 -15 20 -9 -3 -15 0 -15 10 0 8 -7 22 -15 31 -8 8 -12
20 -8 26 4 6 1 8 -9 5 -8 -4 -21 -2 -29 3 -10 6 -10 9 -2 9 13 0 13 26 0 46
-4 7 -1 14 7 17 8 3 17 19 21 36 4 17 10 29 13 27 4 -2 8 8 9 22 1 15 10 45
19 67 15 34 23 89 24 170 1 11 6 38 12 60 19 66 19 68 0 53 -15 -12 -15 -11
-1 12 15 24 15 90 0 90 -3 0 -7 11 -7 25 -1 16 2 23 10 19 6 -3 0 4 -14 15
-16 13 -20 21 -11 21 10 0 7 8 -9 25 -13 14 -29 25 -36 25 -8 0 -30 9 -51 19
-21 11 -57 22 -80 26 -45 7 -41 9 -109 -66 -8 -9 -14 -21 -14 -28 0 -7 -6 -11
-14 -8 -8 3 -16 1 -18 -5 -3 -8 -9 -8 -24 0 -10 6 -14 12 -9 12 6 0 -12 13
-39 29 -88 52 -205 51 -225 -1 -32 -83 -47 -109 -69 -124 -23 -15 -25 -15 -19
0 4 9 1 16 -6 16 -7 0 -25 24 -41 53 -66 119 -96 139 -149 97 -14 -11 -32 -20
-41 -20 -9 0 -16 -7 -16 -16 0 -8 -4 -12 -10 -9 -5 3 -19 1 -32 -6 -17 -9 -24
-9 -32 3 -11 14 -50 13 -42 -1 3 -4 -2 -8 -11 -8 -12 0 -11 5 7 19 25 20 15
23 -25 8 -20 -8 -26 -15 -22 -30 7 -26 -7 -34 -23 -15 -15 19 -31 20 -24 2 2
-7 0 -24 -5 -38 -5 -13 -10 -18 -10 -10 -1 7 -7 11 -16 7 -8 -3 -20 0 -27 7
-7 7 -29 20 -48 30 -19 9 -57 37 -84 62 -47 44 -57 49 -84 46 -8 -1 -20 3 -28
10 -16 13 -48 4 -39 -11 3 -5 -1 -10 -9 -10 -9 0 -16 4 -16 10 0 5 -8 6 -17 3
-11 -4 -12 -8 -5 -11 7 -2 12 -8 12 -13 0 -4 -6 -6 -14 -3 -18 7 -28 -10 -29
-51 -1 -20 -5 -31 -12 -28 -10 3 -37 -48 -72 -134 -3 -7 3 -10 16 -6 12 3 21
12 21 20 0 9 7 13 18 11 9 -2 16 -10 14 -16 -1 -7 2 -12 7 -12 12 0 9 -16 -8
-57 -7 -18 -17 -33 -22 -33 -13 0 -11 7 7 34 17 26 2 48 -19 27 -8 -8 -8 -11
1 -11 7 0 5 -14 -7 -40 -18 -40 -35 -64 -31 -45 5 21 -1 25 -21 15 -16 -9 -18
-14 -9 -25 9 -11 7 -12 -9 -8 -18 5 -29 -11 -81 -119 -34 -68 -62 -133 -63
-145 0 -12 -4 -20 -8 -17 -15 9 -84 -181 -110 -301 -29 -137 -19 -430 18 -532
24 -65 14 -139 -26 -196 -17 -26 -91 -104 -162 -175 -72 -70 -162 -165 -202
-211 -39 -45 -90 -98 -114 -116 l-43 -33 -51 19 c-159 61 -452 243 -541 337
-45 48 -64 83 -60 113 2 8 -4 42 -13 74 -8 33 -15 78 -15 100 0 22 -6 64 -14
93 -8 31 -9 52 -3 52 6 0 6 4 0 13 -6 6 -13 34 -16 62 -3 27 -10 51 -16 53 -6
2 -9 7 -6 12 3 5 -4 11 -15 15 -11 4 -18 11 -14 16 3 5 -13 27 -35 48 -23 22
-41 46 -41 55 0 10 -6 13 -15 10 -10 -4 -15 0 -15 13 0 10 -9 24 -20 31 -23
14 -27 34 -5 26 8 -4 15 -3 15 1 0 13 -45 44 -63 45 -11 0 -15 4 -11 12 5 7 2
9 -8 6 -8 -4 -28 6 -46 23 -17 16 -36 29 -42 29 -6 0 -9 4 -6 8 8 13 -72 84
-85 76 -7 -4 -10 -3 -6 2 7 13 -19 47 -31 40 -6 -3 -13 6 -17 21 -4 16 -9 22
-13 16 -7 -12 -35 -2 -33 11 3 20 -2 24 -34 30 -21 4 -35 13 -35 21 0 8 -4 15
-10 15 -5 0 -7 7 -4 15 4 10 0 15 -11 15 -9 0 -14 4 -11 9 9 13 -3 39 -20 45
-10 4 -13 2 -8 -7 4 -6 -7 1 -25 17 -22 21 -29 36 -25 50 3 14 2 17 -4 8 -7
-10 -13 -8 -30 6 -24 21 -30 38 -9 26 16 -10 -14 28 -31 39 -7 5 -10 17 -7 27
4 12 0 22 -11 28 -12 7 -13 11 -5 17 9 5 7 11 -7 20 -14 11 -18 24 -17 60 1
25 5 48 9 52 3 3 6 14 6 23 0 10 13 23 30 30 17 7 30 16 30 20 0 4 17 12 38
18 35 11 38 15 54 76 10 36 37 98 61 138 93 154 127 240 112 287 -6 19 -12 20
-83 16 -123 -7 -191 -5 -287 10 -49 8 -121 16 -159 19 -70 6 -109 23 -134 58
-7 10 -19 18 -26 18 -7 0 -19 11 -26 25 -16 31 -24 31 -42 3z m2892 -578 c0
-5 -4 -10 -10 -10 -5 0 -10 5 -10 10 0 6 5 10 10 10 6 0 10 -4 10 -10z m447
-6 c-3 -3 -12 -4 -19 -1 -8 3 -5 6 6 6 11 1 17 -2 13 -5z m-460 -36 c-3 -8 -6
-5 -6 6 -1 11 2 17 5 13 3 -3 4 -12 1 -19z m-27 -4 c0 -8 -4 -12 -10 -9 -5 3
-10 10 -10 16 0 5 5 9 10 9 6 0 10 -7 10 -16z m-4589 -1089 c19 -10 38 -24 42
-32 5 -7 12 -11 18 -8 5 4 9 -1 9 -9 0 -8 13 -25 29 -38 16 -13 31 -34 33 -48
1 -14 10 -31 18 -38 13 -11 13 -13 -2 -23 -10 -5 -18 -16 -18 -23 0 -27 -80
-68 -118 -60 -9 2 -33 5 -52 8 -93 13 -176 27 -189 31 -8 3 -30 8 -49 11 -36
6 -48 13 -87 52 -21 20 -22 26 -12 64 10 38 49 84 96 113 23 14 191 32 222 24
14 -3 41 -14 60 -24z m5487 -242 c13 -16 35 -53 49 -83 77 -168 111 -233 160
-307 30 -45 59 -88 66 -95 7 -7 25 -32 41 -55 32 -47 123 -133 141 -133 13 0
78 -96 80 -119 2 -14 14 -93 20 -131 1 -8 -1 -44 -6 -79 -15 -109 -73 -186
-157 -210 -36 -11 -162 -5 -206 8 -17 6 -58 18 -91 27 -33 9 -91 27 -130 41
-61 22 -89 25 -220 26 -136 2 -154 4 -195 26 -54 28 -82 57 -100 102 -20 51
-40 71 -57 58 -9 -8 -13 -8 -13 -1 0 6 -8 13 -17 16 -13 4 -18 15 -16 38 1 18
2 35 3 38 1 3 2 9 1 13 -1 4 5 15 13 22 8 8 16 20 18 27 6 16 38 -8 38 -28 0
-8 9 -5 25 10 14 13 25 26 25 30 0 4 6 13 13 20 104 109 221 299 283 460 56
147 121 288 137 298 27 17 71 8 95 -19z m-2966 -956 c152 -151 253 -280 295
-377 14 -30 29 -64 34 -75 6 -11 11 -45 12 -75 2 -43 -3 -62 -20 -86 -47 -65
-155 -86 -305 -59 -46 9 -110 20 -143 25 -123 21 -181 55 -210 124 -22 52 -7
126 50 243 25 51 45 96 45 102 0 5 4 11 9 13 8 3 59 118 65 146 1 7 8 18 14
24 7 7 12 17 12 23 0 14 36 33 62 34 10 1 46 -27 80 -62z m-860 -758 c48 -50
143 -152 210 -227 68 -75 171 -187 230 -248 59 -62 110 -124 114 -139 4 -15 1
-45 -6 -68 -22 -75 -101 -251 -148 -331 -80 -135 -158 -186 -380 -250 -274
-78 -412 -92 -499 -49 l-42 21 -10 -28 c-13 -39 -57 -48 -113 -21 -56 26 -72
39 -96 83 -17 30 -18 37 -6 42 8 3 14 12 14 20 0 8 9 18 21 21 20 7 21 11 13
74 -10 85 -8 124 17 311 48 362 88 478 182 527 111 57 188 121 257 213 50 67
122 140 139 140 8 0 54 -41 103 -91z m7912 -155 c3 -8 2 -12 -4 -9 -6 3 -10
10 -10 16 0 14 7 11 14 -7z m-1300 -14 c55 -26 73 -55 51 -80 -30 -33 -115 -6
-130 39 -7 23 10 61 27 61 7 0 30 -9 52 -20z m-5154 -3885 c57 -29 106 -89
116 -143 4 -19 1 -63 -6 -96 -6 -34 -14 -73 -17 -87 -3 -18 5 -42 29 -80 19
-30 52 -87 73 -126 22 -40 43 -73 48 -73 4 0 38 16 75 36 120 64 175 39 273
-123 27 -45 49 -88 49 -96 0 -15 48 -27 113 -27 34 0 40 -4 52 -33 8 -18 13
-47 13 -63 -1 -46 12 -93 25 -89 7 3 23 -4 36 -14 23 -18 24 -20 9 -43 -9 -13
-44 -40 -79 -58 -57 -31 -73 -35 -140 -35 -73 0 -79 2 -135 40 -70 48 -238
232 -305 335 -27 41 -79 145 -116 232 l-67 158 -61 19 c-138 43 -171 65 -211
143 -33 65 -30 88 15 146 34 43 123 102 153 102 5 0 31 -11 58 -25z m1288 -52
c35 -21 54 -43 76 -86 l30 -58 -17 -67 c-9 -37 -19 -83 -22 -104 -6 -36 -6
-36 -63 -41 -31 -2 -71 -7 -89 -10 -44 -8 -73 17 -145 126 -66 102 -67 104 -6
185 74 99 140 115 236 55z m3122 -367 c0 -8 -24 -31 -52 -51 -29 -20 -77 -54
-107 -76 -36 -26 -65 -39 -85 -39 l-31 1 40 34 c22 19 69 50 105 70 36 19 76
44 90 55 30 23 40 25 40 6z m-3018 -33 c29 -21 59 -46 66 -55 7 -10 20 -18 28
-18 8 0 14 -6 14 -13 0 -7 8 -20 18 -29 9 -10 24 -25 33 -35 16 -19 86 -122
76 -113 -3 3 -59 57 -124 120 -65 63 -136 129 -158 147 -57 46 -19 43 47 -4z
m2718 -110 c0 -28 -18 -11 -24 23 -4 19 -9 43 -12 52 -2 9 5 -1 16 -23 11 -22
20 -46 20 -52z m4394 25 c7 -30 11 -65 10 -79 -1 -13 -3 -48 -5 -77 -4 -94
-56 -114 -83 -33 -20 61 -20 97 -2 149 15 41 56 105 63 98 3 -2 10 -28 17 -58z
m-5299 -297 c3 -5 1 -12 -5 -16 -5 -3 -10 1 -10 9 0 18 6 21 15 7z m5297 -32
c29 -6 60 -14 68 -16 8 -3 26 -7 40 -8 14 -2 34 -5 45 -8 21 -5 79 -12 180
-23 33 -3 107 -7 165 -9 58 -2 240 -8 405 -13 165 -6 422 -14 570 -17 264 -5
469 -16 690 -35 61 -6 171 -15 245 -20 210 -16 353 -50 335 -80 -5 -8 -45 -22
-105 -37 -108 -27 -325 -37 -975 -47 -172 -3 -182 -4 -231 -30 -61 -31 -107
-33 -149 -7 -17 10 -47 24 -68 30 -41 14 -367 23 -367 11 0 -17 -133 -14 -167
3 -19 10 -69 15 -158 16 -207 3 -390 10 -534 22 -73 6 -144 8 -156 5 -13 -3
-65 -6 -117 -6 -121 0 -131 1 -144 11 -14 11 -271 26 -520 30 l-121 2 -43 -46
c-23 -26 -49 -47 -56 -47 -8 0 -14 -4 -14 -8 0 -4 -21 -24 -48 -44 -26 -20
-90 -78 -142 -130 -161 -158 -189 -178 -232 -169 -46 10 -44 24 8 45 30 12 96
65 195 157 83 76 188 168 235 205 46 36 84 66 84 67 0 1 -80 3 -178 4 -97 1
-188 6 -202 11 -23 9 -23 9 13 16 20 4 37 11 37 16 0 6 3 9 8 8 4 -1 21 4 37
11 17 7 44 15 60 18 17 3 36 11 43 16 8 6 21 12 30 14 10 1 49 9 87 18 39 8
81 18 95 21 14 2 32 7 40 10 8 3 173 7 365 10 408 5 511 9 545 23 33 13 39 13
102 0z m-11842 -59 c52 -4 356 -8 675 -7 685 2 880 -7 1014 -47 l43 -12 -48
-33 c-67 -44 -271 -147 -279 -140 -3 3 1 19 9 34 8 16 13 32 10 37 -6 10 -820
8 -1129 -3 -110 -4 -407 -14 -660 -24 -699 -25 -1103 -33 -1630 -30 -467 3
-524 5 -670 25 -38 5 -86 12 -105 14 -93 11 -131 33 -104 60 8 9 18 16 22 17
4 0 15 2 26 4 40 8 151 15 366 25 124 5 266 12 315 15 158 9 295 14 510 20
493 12 602 15 815 20 254 6 518 23 558 36 27 8 82 6 262 -11z m3165 -95 c-16
-8 -43 -14 -60 -14 -29 1 -28 2 10 14 55 19 90 18 50 0z m359 -462 c-25 -18
-39 -16 -20 3 9 8 19 27 23 42 l8 27 3 -30 c3 -19 -2 -33 -14 -42z m-2248 -32
c3 -9 6 -34 5 -56 0 -22 -3 -179 -6 -350 -3 -170 -8 -339 -11 -375 -5 -78 -5
-108 1 -138 2 -12 0 -20 -5 -17 -9 5 -5 -37 6 -72 2 -7 -1 -13 -7 -13 -6 0 -8
-4 -4 -9 3 -5 1 -12 -5 -16 -5 -3 -10 -14 -10 -23 0 -12 3 -13 8 -5 6 9 11 7
20 -7 8 -13 9 -20 1 -20 -5 0 -7 -4 -4 -10 3 -5 1 -10 -4 -10 -14 0 -14 -37 0
-46 8 -4 8 -9 0 -17 -7 -7 -7 -14 0 -24 9 -10 8 -13 -1 -13 -10 0 -10 -3 0
-15 7 -8 19 -15 27 -15 12 0 14 -8 9 -33 -3 -18 -4 -36 0 -39 3 -4 7 -29 9
-57 3 -37 1 -49 -8 -44 -6 3 -1 -7 11 -24 12 -17 19 -33 16 -36 -3 -3 -8 -20
-10 -37 -4 -22 -2 -30 6 -25 8 5 11 -9 10 -47 0 -29 0 -136 0 -238 1 -168 -5
-345 -10 -345 -2 0 -4 -10 -5 -22 -1 -13 3 -23 9 -23 8 0 8 -2 0 -8 -12 -8
-12 -10 -14 -90 -2 -51 -9 -64 -14 -25 -2 10 -7 16 -12 13 -5 -3 -8 -9 -6 -14
2 -5 -4 -3 -13 4 -8 7 -19 9 -23 5 -4 -4 3 -14 16 -22 26 -18 30 -38 6 -29
-14 6 -15 4 -4 -9 7 -9 16 -33 19 -53 5 -29 11 -38 29 -40 18 -3 21 -8 16 -24
-5 -15 -3 -19 7 -13 10 6 11 5 4 -3 -15 -17 -62 -25 -150 -26 l-80 -1 1 75 c2
73 29 752 39 955 2 55 7 170 10 255 3 85 8 191 10 235 3 44 7 143 10 220 10
250 25 507 37 625 6 63 10 123 10 133 0 9 3 17 9 17 5 0 9 13 9 28 0 31 24 40
36 13z m7148 -137 c3 -9 6 -104 6 -211 l0 -196 -37 6 c-47 8 -64 24 -41 41 14
10 19 43 28 182 6 93 13 175 15 182 6 17 22 15 29 -4z m-4958 -630 c2 -313 6
-584 9 -601 2 -18 0 -33 -4 -33 -5 0 -57 47 -116 105 -60 58 -104 105 -99 105
12 0 147 -108 157 -126 4 -8 11 -14 15 -14 4 0 5 217 4 482 -4 492 2 678 20
660 6 -6 11 -230 14 -578z m7999 557 c17 -7 16 -9 -13 -16 -40 -8 -105 2 -97
16 7 11 82 11 110 0z m-2596 -278 l1 -163 34 -14 c48 -20 52 -45 21 -114 -15
-31 -37 -103 -50 -158 -28 -121 -47 -162 -117 -246 -69 -82 -188 -198 -204
-198 -17 0 -21 25 -13 90 4 30 8 198 8 373 l1 317 -24 0 c-26 0 -75 34 -64 45
4 4 22 8 40 10 39 3 43 15 54 147 5 72 9 87 17 72 8 -13 11 -140 9 -384 -2
-381 4 -570 18 -570 14 0 165 147 194 189 22 31 31 62 42 138 8 54 24 123 36
153 20 49 24 91 12 112 -10 15 -32 -5 -38 -34 -5 -24 -10 -29 -26 -25 -10 3
-21 0 -23 -6 -5 -16 -27 2 -27 23 0 13 8 20 29 22 l30 3 5 202 c2 112 8 208
12 215 15 24 22 -35 23 -199z m-6059 -293 l5 -360 85 -85 c47 -47 165 -166
263 -263 98 -97 222 -221 275 -275 53 -54 106 -104 117 -109 18 -10 19 -10 6
5 -15 19 -8 21 54 17 17 0 52 6 79 15 72 25 74 14 4 -28 -43 -26 -72 -37 -90
-34 -24 3 -27 1 -22 -20 4 -13 3 -23 -1 -23 -22 0 -1343 1309 -1345 1333 -1
33 213 -146 404 -339 l134 -134 -6 263 c-5 285 2 427 21 408 9 -9 13 -119 17
-371z m6420 13 l0 -337 28 37 c29 38 66 73 336 315 93 84 172 150 175 146 6
-6 -25 -36 -337 -326 -105 -97 -203 -194 -218 -215 -62 -83 -153 -179 -342
-359 -185 -176 -189 -180 -67 -53 276 285 332 345 358 384 l26 40 6 305 c6
332 12 413 26 405 5 -4 9 -147 9 -342z m-4554 75 c-4 -123 -12 -250 -16 -283
-6 -38 -7 43 -4 215 3 151 8 278 10 282 15 23 16 -12 10 -214z m2669 72 c4
-23 6 -91 4 -153 -2 -62 1 -223 5 -359 8 -243 8 -248 -14 -303 -13 -32 -29
-55 -37 -55 -11 0 -13 6 -9 23 7 21 24 567 25 785 1 104 14 135 26 62z m1090
14 c15 -6 15 -34 9 -308 -4 -174 -11 -304 -17 -307 -5 -4 -17 -5 -26 -2 -15 4
-15 30 -8 301 4 163 9 303 12 310 5 14 7 14 30 6z m-5244 -29 c71 -37 96 -155
33 -155 -21 0 -24 5 -24 39 0 51 -28 86 -61 78 -32 -8 -53 -47 -52 -94 2 -53
17 -62 63 -36 l40 21 0 -28 c0 -15 -8 -38 -18 -50 -40 -49 -104 5 -118 99 -9
58 4 90 45 118 40 27 52 28 92 8z m408 -321 l1 -241 31 -7 c17 -3 149 -6 292
-6 l260 0 -7 -77 c-3 -42 -6 -116 -6 -165 0 -77 -2 -88 -18 -88 -15 0 -17 9
-14 78 2 42 7 110 11 150 5 49 4 75 -3 80 -6 4 -135 9 -286 12 l-275 5 -1 300
c-1 182 1 280 6 250 5 -27 9 -159 9 -291z m-1371 194 c325 -308 715 -707 741
-756 12 -22 11 -23 -8 -12 -12 6 -65 56 -119 112 -53 55 -187 189 -297 297
-346 339 -412 405 -424 429 -23 44 11 22 107 -70z m2863 35 c-16 -29 -57 -82
-98 -126 -58 -62 -296 -348 -317 -379 -20 -30 -36 -36 -36 -14 0 33 152 221
364 448 78 84 107 108 87 71z m3717 -60 c0 -10 3 -26 7 -35 4 -11 3 -18 -4
-18 -13 0 -43 55 -34 64 13 12 32 5 31 -11z m-3723 -60 c-5 -10 -13 -64 -20
-121 -7 -57 -14 -104 -16 -106 -9 -8 -109 7 -109 16 0 6 10 24 23 41 12 18 31
52 43 77 12 25 31 54 43 64 11 11 21 25 21 33 0 7 5 13 11 13 7 0 8 -7 4 -17z
m4569 -32 c11 -18 -43 -71 -296 -293 -102 -89 -122 -113 -179 -210 -49 -83
-97 -138 -120 -138 -54 0 66 158 244 320 63 58 164 155 224 217 59 61 111 112
115 112 4 1 9 -3 12 -8z m-2163 -177 c-6 -24 -11 -64 -12 -91 0 -26 -4 -57 -9
-68 -17 -41 1 218 18 270 12 35 14 -65 3 -111z m-551 61 c7 -9 19 -14 26 -11
15 6 40 -21 29 -32 -4 -4 -10 -1 -12 6 -3 6 -11 12 -18 12 -16 0 -26 -35 -13
-48 6 -6 8 -16 6 -22 -5 -15 -64 43 -84 83 -14 27 -14 27 20 27 18 0 39 -7 46
-15z m4203 -134 c1 -33 5 -61 10 -61 4 0 3 -8 -2 -18 -7 -13 -6 -23 1 -30 9
-9 9 -12 0 -12 -7 0 -12 -13 -12 -30 0 -16 4 -30 9 -30 7 0 8 -54 2 -102 -2
-16 -20 -7 -19 10 0 12 -11 269 -14 322 -2 24 3 33 13 23 5 -5 11 -38 12 -72z
m-1293 -90 c0 -14 -21 -27 -100 -60 -82 -34 -118 -39 -126 -16 -10 26 15 46
50 40 20 -3 50 3 86 19 59 25 90 31 90 17z m-7564 -37 c79 -37 79 -75 0 -60
-31 6 -106 68 -106 89 0 12 43 1 106 -29z m4615 -127 c21 -37 49 -69 80 -92
52 -37 64 -65 28 -65 -28 0 -119 90 -119 117 0 11 -6 26 -14 32 -30 25 -33
-305 -4 -384 6 -16 31 -59 55 -94 48 -69 49 -97 1 -41 -46 54 -94 158 -107
230 -6 36 -14 151 -18 255 l-6 190 36 -45 c20 -25 50 -71 68 -103z m-338 93
c-3 -11 -7 -20 -9 -20 -2 0 -4 9 -4 20 0 11 4 20 9 20 5 0 7 -9 4 -20z m-2813
-131 c29 -7 25 -8 -20 -4 -30 3 -70 5 -87 5 -18 0 -33 4 -33 9 0 9 87 3 140
-10z m4358 2 c-21 -30 -170 -127 -213 -138 -22 -6 -48 -14 -57 -18 -39 -16
-15 13 25 31 23 10 84 47 136 81 96 65 134 80 109 44z m-638 -37 c0 -27 -4
-43 -10 -39 -17 11 -11 85 7 85 2 0 3 -21 3 -46z m-3488 19 c36 -32 11 -44
-51 -22 -34 12 -40 25 -13 32 33 9 46 7 64 -10z m7178 -65 c7 -65 5 -88 -11
-88 -5 0 -9 37 -9 82 0 94 9 97 20 6z m-3887 14 c30 -13 28 -32 -3 -32 -10 0
-33 -14 -50 -32 -26 -25 -34 -29 -41 -17 -12 20 -12 21 22 68 18 23 35 39 38
34 3 -5 19 -14 34 -21z m-3153 -38 c0 -2 -9 0 -20 6 -11 6 -20 13 -20 16 0 2
9 0 20 -6 11 -6 20 -13 20 -16z m3253 -101 c21 -15 43 -37 47 -48 9 -23 2 -75
-10 -75 -16 0 -112 121 -106 135 8 22 25 19 69 -12z m3784 -15 c-3 -7 -5 -2
-5 12 0 14 2 19 5 13 2 -7 2 -19 0 -25z m-6780 -38 c8 -10 13 -54 13 -125 0
-60 5 -139 10 -175 5 -35 7 -66 4 -69 -2 -3 -14 5 -26 16 -19 20 -21 35 -26
193 -4 153 -7 173 -23 183 -11 7 -19 15 -19 20 0 10 51 -23 67 -43z m6794 -27
c0 -27 2 -59 4 -73 6 -42 15 -406 11 -395 -4 8 -36 460 -36 504 0 6 5 11 10
11 6 0 10 -21 11 -47z m-3527 -50 c-8 -89 -30 -198 -44 -220 -9 -15 -10 -13
-6 12 3 17 10 80 16 140 13 125 15 135 30 135 7 0 8 -23 4 -67z m-2801 -140
c5 -8 3 -13 -4 -13 -7 0 -9 -3 -5 -7 4 -4 15 -8 24 -8 9 0 18 -9 20 -20 2 -16
1 -17 -7 -5 -17 24 -19 8 -11 -65 4 -38 5 -73 3 -77 -9 -16 -21 -7 -25 17 -3
14 -1 25 3 25 5 0 9 18 9 40 0 22 -3 40 -8 40 -4 0 -7 -16 -6 -36 2 -27 -1
-33 -9 -25 -8 8 -13 59 -14 139 -2 124 -2 126 10 67 7 -33 16 -66 20 -72z
m3592 105 c14 -6 25 -15 25 -19 0 -5 14 -16 31 -24 35 -19 37 -53 4 -70 -11
-5 -33 -23 -48 -39 -22 -21 -31 -26 -40 -17 -9 9 -4 19 21 42 33 31 41 66 20
87 -32 32 -68 1 -68 -57 0 -36 -13 -46 -40 -31 -27 14 -35 54 -17 80 11 16 65
54 84 59 1 1 14 -4 28 -11z m-3395 -193 c12 -92 12 -182 1 -190 -25 -15 -41
71 -55 290 l-5 80 25 -55 c14 -30 29 -86 34 -125z m3115 148 c-4 -10 -10 -26
-12 -35 -3 -10 -9 -15 -14 -13 -10 7 10 65 23 65 6 0 7 -8 3 -17z m-735 -10
c0 -23 -17 -49 -26 -41 -9 10 4 58 16 58 6 0 10 -8 10 -17z m-422 -215 c17
-17 15 -68 -3 -68 -19 0 -49 46 -41 65 7 18 28 19 44 3z m-94 -329 c-66 -73
-141 -158 -168 -188 -49 -56 -81 -80 -92 -68 -4 4 1 19 11 34 25 40 354 367
361 360 4 -4 -47 -66 -112 -138z m4301 75 c3 -32 8 -86 11 -119 3 -33 6 -66 6
-72 1 -7 14 -13 30 -13 16 0 42 -7 58 -15 16 -8 33 -14 37 -13 11 2 97 -25
103 -33 4 -5 25 -9 110 -23 9 -1 21 -5 28 -10 7 -4 26 -8 42 -8 17 -1 30 -5
30 -10 0 -4 11 -8 25 -8 32 0 86 -20 220 -80 39 -18 75 -33 80 -35 20 -4 50
-18 63 -29 8 -5 23 -12 35 -13 12 -2 28 -10 36 -17 9 -7 33 -19 54 -27 20 -7
37 -17 37 -21 0 -4 4 -8 9 -8 5 0 26 -8 47 -17 22 -9 42 -16 47 -15 4 1 7 -2
7 -7 0 -5 10 -13 23 -16 38 -12 91 -38 110 -53 9 -8 17 -12 17 -9 0 7 158 -74
283 -145 38 -21 72 -38 77 -38 4 0 13 -6 19 -13 6 -8 41 -29 78 -47 38 -19 81
-43 98 -55 37 -25 239 -131 365 -191 191 -91 187 -126 -18 -165 -89 -17 -154
-7 -252 39 -47 22 -119 54 -160 72 -118 51 -499 240 -675 333 -273 146 -1054
509 -1123 523 -39 8 -41 20 -7 36 14 6 29 23 33 37 4 14 6 100 5 190 -2 164 3
205 12 95z m-9895 -74 c0 -5 -5 -10 -11 -10 -5 0 -7 5 -4 10 3 6 8 10 11 10 2
0 4 -4 4 -10z m0 -30 c0 -5 -4 -10 -10 -10 -5 0 -10 5 -10 10 0 6 5 10 10 10
6 0 10 -4 10 -10z m3845 -60 c3 -5 1 -10 -4 -10 -6 0 -11 5 -11 10 0 6 2 10 4
10 3 0 8 -4 11 -10z m-69 -18 c47 -40 48 -44 52 -476 5 -436 2 -463 -43 -506
l-25 -23 0 289 c0 297 -13 554 -30 613 -11 40 -2 121 14 121 6 -1 20 -9 32
-18z m1894 -12 c0 -5 -4 -10 -10 -10 -5 0 -9 -3 -9 -7 3 -20 -2 -27 -10 -14
-5 8 -7 20 -4 28 6 15 33 18 33 3z m-40 -35 c0 -8 -3 -15 -7 -15 -5 0 -30 -21
-56 -45 -26 -25 -52 -45 -57 -45 -20 0 -9 19 19 36 16 9 42 32 57 50 32 37 44
42 44 19z m1780 -44 c0 -22 -25 -45 -40 -36 -13 8 -13 28 2 43 18 18 38 14 38
-7z m-8334 -16 c6 -25 -17 -65 -37 -65 -5 0 -77 -32 -161 -71 -84 -39 -207
-96 -273 -126 -66 -30 -145 -66 -175 -80 -89 -41 -474 -234 -485 -243 -17 -13
-421 -214 -590 -293 -193 -91 -269 -117 -356 -124 -67 -6 -179 17 -179 37 0
18 53 58 92 70 50 14 196 84 303 144 180 100 778 393 912 447 40 16 81 33 90
38 10 5 38 17 63 26 25 10 74 30 110 45 36 16 76 31 90 35 14 4 39 13 55 20
66 27 111 44 135 50 14 3 34 10 45 15 61 26 210 70 256 76 30 4 61 10 69 15
24 13 29 11 36 -16z m2947 -38 c-6 -39 -23 -51 -23 -16 0 21 19 64 26 57 2 -2
1 -21 -3 -41z m5877 -297 c8 -5 12 -11 10 -14 -3 -2 -14 2 -24 10 -22 15 -10
19 14 4z m-2089 -322 c0 -7 2 -24 4 -38 3 -32 -5 -46 -16 -29 -12 19 -11 79 1
79 6 0 10 -6 11 -12z m-201 -67 c0 -73 31 -152 48 -124 10 16 94 5 85 -11 -3
-6 -2 -7 3 -3 5 5 9 14 9 20 0 7 11 12 25 12 14 0 27 5 30 12 7 15 136 -49
177 -89 32 -31 46 -69 45 -120 -1 -31 13 -46 21 -24 3 8 11 61 18 118 17 148
28 162 28 38 1 -144 8 -175 38 -189 13 -6 23 -17 21 -23 -2 -6 3 -19 11 -28 9
-9 23 -27 31 -39 33 -49 60 -71 88 -71 27 0 72 -31 72 -50 0 -5 16 -16 36 -25
71 -29 272 -204 303 -263 28 -53 -5 -29 -111 80 -103 105 -181 168 -208 168
-12 0 -3 -49 11 -64 5 -6 9 -23 9 -39 0 -22 -4 -28 -15 -23 -9 3 -23 -3 -33
-15 -9 -11 -31 -29 -49 -40 -47 -30 -66 -95 -64 -232 0 -112 -10 -179 -33
-207 -21 -25 -38 -101 -42 -184 -4 -95 -44 -230 -84 -289 -16 -23 -31 -53 -34
-67 -6 -34 -27 -91 -42 -115 -6 -11 -15 -42 -19 -68 -10 -71 -38 -113 -88
-130 -39 -13 -43 -18 -64 -78 -12 -35 -22 -79 -22 -96 -1 -18 -5 -33 -10 -33
-8 0 -17 62 -28 190 -2 36 -7 67 -9 70 -3 2 -13 -1 -22 -6 -11 -7 -18 -28 -20
-60 -2 -27 -8 -53 -13 -58 -5 -6 -9 -22 -9 -37 0 -41 -66 -103 -114 -107 -22
-2 -42 2 -46 8 -5 8 -14 8 -34 -1 -23 -11 -29 -10 -50 10 -15 14 -26 19 -31
12 -3 -6 -11 -55 -17 -109 -5 -53 -12 -99 -15 -102 -15 -16 -23 47 -23 200 l0
175 -28 3 c-15 2 -37 4 -49 5 -13 0 -23 5 -23 9 0 4 -5 8 -10 8 -26 0 -118
110 -93 110 5 0 2 4 -5 9 -8 5 -14 25 -15 45 -1 20 -5 36 -10 36 -4 0 -6 3 -3
8 7 12 -41 258 -65 325 -12 34 -34 109 -50 167 -36 130 -38 138 -45 175 -15
87 -46 205 -64 250 -5 11 -20 58 -35 105 -15 47 -31 94 -36 105 -63 150 -63
178 -1 243 26 28 61 57 77 65 17 8 39 24 49 36 11 12 24 21 29 21 6 0 36 12
68 28 38 17 59 33 59 45 0 19 22 22 50 7 13 -7 22 -6 32 3 7 7 25 18 41 24 21
10 27 19 27 46 0 40 24 77 50 77 14 0 21 -10 25 -37 10 -61 16 -71 25 -48 11
27 11 149 0 205 -9 48 1 80 24 80 17 0 26 -22 26 -60 0 -37 24 -55 76 -55 49
0 68 18 79 75 13 69 35 63 35 -9z m-2485 17 c0 -14 -19 -14 -315 -8 l-145 3
127 7 c70 3 130 9 133 12 3 3 50 4 103 2 70 -3 97 -7 97 -16z m-612 5 c-7 -2
-21 -2 -30 0 -10 3 -4 5 12 5 17 0 24 -2 18 -5z m3742 -22 c-3 -12 -11 -19
-16 -16 -5 4 -5 14 2 26 13 26 23 18 14 -10z m235 6 c0 -8 -3 -17 -7 -20 -9
-9 -34 13 -27 24 8 14 34 11 34 -4z m-3546 -409 c9 -33 8 -38 -8 -38 -16 0
-31 34 -21 50 10 17 22 11 29 -12z m-1396 -135 c31 -5 52 -26 39 -40 -10 -9
-145 28 -159 44 -13 17 7 16 120 -4z m6214 -7 c6 -8 8 -7 8 2 0 8 15 12 50 11
54 -2 59 -7 15 -15 -16 -3 -36 -9 -46 -14 -22 -12 -238 -12 -297 -1 -24 5 -50
15 -58 22 -11 12 13 13 154 10 111 -2 169 -7 174 -15z m-5022 -5 c0 -5 -9 -7
-20 -4 -11 3 -20 7 -20 9 0 2 9 4 20 4 11 0 20 -4 20 -9z m115 -151 c3 -5 2
-10 -4 -10 -5 0 -13 5 -16 10 -3 6 -2 10 4 10 5 0 13 -4 16 -10z m3883 -346
c18 -5 11 -48 -9 -52 -17 -3 -80 37 -86 55 -4 11 58 9 95 -3z m180 -154 c17
-16 32 -34 32 -40 0 -5 12 -17 28 -25 26 -16 26 -16 2 -10 -14 4 -38 10 -54
13 -34 9 -71 54 -63 76 9 22 17 20 55 -14z m-7458 -30 c0 -5 10 -12 23 -15 35
-11 257 -144 306 -183 36 -29 71 -82 71 -107 0 -14 -28 -1 -74 33 -28 21 -98
73 -156 114 -143 104 -238 192 -185 172 8 -4 15 -10 15 -14z m7638 -57 c-15
-2 -42 -2 -60 0 -18 2 -6 4 27 4 33 0 48 -2 33 -4z m335 -10 c-7 -2 -19 -2
-25 0 -7 3 -2 5 12 5 14 0 19 -2 13 -5z m65 -40 c-4 -34 -28 -43 -28 -10 0 25
7 37 22 37 5 0 8 -12 6 -27z m-1112 -50 c-6 -6 -36 9 -36 18 0 5 9 4 20 -3 10
-7 18 -14 16 -15z m408 -104 c39 -31 33 -42 -20 -36 -51 5 -70 18 -61 41 9 22
49 20 81 -5z m-196 -158 c10 -6 10 -10 -1 -20 -12 -9 -16 -7 -20 9 -5 21 0 25
21 11z m-282 -168 c24 -93 27 -110 15 -117 -17 -11 -28 24 -36 109 -8 91 -1
94 21 8z m-2558 -254 c47 -42 36 -45 -13 -3 -22 18 -35 34 -30 34 6 -1 25 -14
43 -31z m82 -64 c16 -19 1 -19 -24 0 -16 12 -17 15 -4 15 8 0 21 -7 28 -15z
m891 -152 c13 -16 12 -17 -3 -4 -16 12 -18 11 -18 -3 0 -9 -2 -16 -4 -16 -2 0
-13 -3 -23 -6 -16 -6 -16 -5 2 9 11 9 16 17 10 17 -7 0 12 19 21 20 1 0 8 -8
15 -17z m-930 -325 c-11 -128 -36 -223 -67 -249 -25 -20 -26 -3 -5 48 32 75
41 128 47 278 3 77 10 167 17 200 l12 60 3 -105 c2 -58 -2 -162 -7 -232z m321
257 c46 -31 46 -31 40 1 -5 26 -5 26 46 -11 31 -24 48 -43 45 -52 -3 -7 1 -21
9 -31 52 -61 21 -48 -97 41 -97 73 -102 77 -89 77 5 0 26 -11 46 -25z m164
-92 c-3 -4 -6 -1 -6 6 0 7 -4 9 -10 6 -11 -7 -14 8 -3 19 4 3 11 -1 16 -9 5
-9 6 -19 3 -22z m109 -23 c3 -5 1 -10 -4 -10 -6 0 -11 5 -11 10 0 6 2 10 4 10
3 0 8 -4 11 -10z m1710 0 c3 -5 1 -10 -4 -10 -6 0 -11 5 -11 10 0 6 2 10 4 10
3 0 8 -4 11 -10z m-1879 -121 c31 -34 389 -242 439 -255 20 -5 24 -3 19 10 -3
9 -12 16 -20 16 -21 0 -270 128 -367 189 -44 27 -42 33 9 33 24 0 32 3 23 8
-7 5 -11 12 -7 15 3 3 30 -7 59 -23 30 -16 86 -46 124 -67 39 -20 75 -41 81
-46 12 -10 122 -71 234 -132 41 -22 79 -46 83 -53 4 -8 14 -14 22 -14 8 0 25
-11 39 -25 14 -14 28 -25 32 -25 4 0 26 -8 48 -19 23 -10 80 -35 128 -55 48
-21 115 -49 148 -65 l61 -27 -66 4 -66 4 8 -83 c4 -46 7 -120 6 -164 0 -44 -1
-109 -2 -144 -1 -70 -13 -76 -17 -8 -5 75 -16 127 -28 127 -6 0 -4 5 4 10 8 5
11 10 6 10 -5 0 -17 -7 -27 -16 -17 -15 -18 -15 -13 12 3 16 2 25 -2 21 -4 -4
-13 5 -20 20 l-12 28 -2 -35 -2 -35 -8 30 c-5 19 -8 -16 -9 -95 -1 -69 -4
-191 -8 -272 -4 -91 -2 -148 4 -148 20 0 131 99 176 158 46 61 47 65 47 132 0
46 -8 95 -25 147 -13 42 -22 80 -19 82 17 18 125 -188 116 -222 -8 -33 -93
-154 -164 -233 -127 -141 -131 -147 -136 -235 -2 -43 -1 -86 2 -96 7 -17 9
-16 27 6 19 23 19 23 19 2 0 -15 4 -20 13 -15 7 4 9 3 4 -2 -5 -5 -11 -8 -14
-6 -3 2 -14 -16 -24 -38 -21 -46 -25 -95 -9 -105 10 -6 50 29 50 44 0 5 9 7
20 4 22 -6 36 -58 26 -98 -6 -25 -33 -37 -87 -39 -24 -1 -27 -5 -33 -46 -3
-25 -4 -124 -3 -220 2 -175 2 -175 29 -201 31 -31 28 -59 -6 -87 -18 -13 -21
-23 -15 -44 4 -15 4 -29 1 -32 -3 -3 2 -6 12 -6 16 0 17 -12 15 -122 -2 -90
-6 -130 -18 -151 -13 -23 -13 -29 -3 -36 11 -7 11 -16 -1 -52 -8 -24 -12 -46
-7 -49 15 -10 -3 -164 -20 -175 -5 -3 -11 -29 -15 -58 -3 -28 -8 -68 -10 -87
-2 -19 -7 -69 -10 -110 -3 -41 -8 -96 -10 -122 -2 -29 -12 -59 -24 -74 -12
-15 -21 -31 -21 -37 0 -18 -91 -137 -106 -137 -7 0 -14 -7 -14 -16 0 -17 -25
-46 -32 -38 -6 6 -68 -116 -68 -134 0 -6 -3 -12 -8 -12 -4 0 -12 -9 -17 -19
-35 -70 -97 -171 -104 -171 -4 0 -23 28 -41 62 -19 34 -35 57 -38 50 -3 -9
-12 -5 -29 12 -14 14 -29 24 -33 21 -6 -4 -140 232 -140 248 0 3 -13 34 -29
69 -37 79 -84 218 -77 226 3 3 2 10 -3 16 -9 11 -22 84 -25 141 -1 17 -7 41
-14 55 -14 32 -34 150 -36 215 -1 28 -4 55 -8 60 -7 11 -16 129 -24 313 -6
137 -12 237 -14 237 -1 0 -3 71 -5 157 -2 87 -7 177 -11 200 -4 24 -7 46 -6
50 1 4 -5 23 -14 43 -8 20 -13 39 -10 43 2 4 -5 34 -16 67 -12 35 -24 107 -29
172 -9 120 -18 144 -74 198 -47 46 -182 200 -167 191 28 -17 143 -131 168
-167 31 -45 63 -59 76 -35 5 9 18 16 29 16 19 0 19 1 2 33 -10 17 -19 39 -20
47 -21 118 -24 143 -18 148 11 12 45 -41 64 -103 36 -117 41 -87 41 280 0 191
2 382 5 424 2 42 7 179 10 305 3 126 8 233 11 238 8 13 20 10 40 -13z m-103
-451 c-4 -398 -12 -618 -25 -618 -5 0 -17 17 -26 38 -14 32 -17 93 -20 466 -3
295 -1 426 7 422 5 -4 15 3 21 15 11 19 13 19 29 5 16 -14 17 -42 14 -328z
m-1699 184 c8 -16 22 -59 30 -96 9 -36 25 -85 37 -109 37 -73 -6 -18 -49 63
-39 74 -59 141 -47 160 9 15 13 13 29 -18z m-2447 -147 c1 -24 10 -61 19 -82
8 -21 18 -49 20 -63 8 -49 27 -125 33 -135 3 -5 7 -19 8 -30 6 -42 26 -121 36
-139 5 -11 12 -36 14 -55 3 -20 8 -40 13 -46 4 -5 10 -23 14 -40 12 -51 58
-199 66 -210 4 -5 10 -29 14 -53 3 -24 11 -51 16 -60 5 -9 20 -48 34 -87 14
-38 37 -101 51 -140 15 -38 36 -93 46 -122 10 -29 30 -76 43 -105 13 -29 38
-91 56 -138 17 -47 51 -130 75 -185 23 -55 66 -156 95 -225 29 -69 66 -154 83
-190 16 -36 38 -87 49 -115 44 -116 200 -425 272 -541 30 -49 72 -118 92 -154
50 -88 133 -227 161 -270 13 -19 28 -42 33 -50 5 -8 46 -71 91 -140 173 -264
279 -429 279 -435 0 -3 28 -49 63 -103 56 -85 224 -351 248 -392 5 -8 36 -59
69 -113 33 -54 60 -100 60 -103 0 -3 8 -17 19 -32 10 -15 65 -97 121 -182 93
-140 279 -393 335 -456 6 -6 21 -26 35 -44 14 -19 43 -57 65 -85 22 -27 65
-84 96 -125 30 -41 69 -93 85 -114 92 -122 127 -185 144 -258 15 -68 9 -153
-14 -176 -14 -14 -21 -14 -53 -3 -50 18 -77 44 -188 181 -182 226 -316 422
-875 1271 -124 188 -234 357 -246 374 -145 217 -390 622 -558 920 -189 336
-250 468 -551 1195 -151 364 -243 618 -340 930 -76 248 -170 627 -191 775 -4
28 -9 55 -11 60 -7 23 -23 122 -24 159 -1 23 -6 46 -11 53 -6 7 -7 16 -4 21 2
4 1 26 -4 47 -5 21 -7 43 -4 47 12 18 19 5 21 -37z m3756 -100 c-3 -9 -8 -14
-10 -11 -3 3 -2 9 2 15 9 16 15 13 8 -4z m-214 -318 c-30 -62 -36 -94 -35
-195 1 -104 -8 -132 -20 -65 -14 76 -5 176 23 227 8 17 21 41 27 53 17 34 22
16 5 -20z m115 -92 c-4 -8 -8 -15 -10 -15 -2 0 -4 7 -4 15 0 8 4 15 10 15 5 0
7 -7 4 -15z m6441 -272 c33 -7 70 -16 83 -19 47 -10 137 -47 149 -61 15 -19
-4 -67 -36 -90 -32 -22 -138 -28 -260 -14 -234 28 -294 76 -196 158 64 53 122
59 260 26z m-11588 -38 c92 -43 94 -44 172 -64 41 -11 79 -18 83 -15 4 3 8 0
8 -5 0 -6 0 -14 0 -18 0 -4 -5 -8 -12 -9 -7 -2 -29 -7 -49 -12 -46 -12 -136 2
-192 28 -53 25 -137 97 -137 117 0 22 51 12 127 -22z m6729 -241 c-9 -8 -16
-25 -16 -37 -1 -20 -2 -20 -11 -5 -12 22 5 58 27 58 14 0 14 -2 0 -16z"/>
<path d="M11086 23781 c-3 -5 5 -8 18 -7 13 0 22 4 19 9 -6 10 -31 9 -37 -2z"/>
<path d="M17246 22381 c5 -4 23 -11 39 -15 l30 -6 -25 15 c-27 16 -60 21 -44
6z"/>
<path d="M16500 22260 c0 -5 11 -10 25 -10 14 0 25 5 25 10 0 6 -11 10 -25 10
-14 0 -25 -4 -25 -10z"/>
<path d="M17195 22180 c-3 -5 -1 -10 4 -10 6 0 11 5 11 10 0 6 -2 10 -4 10 -3
0 -8 -4 -11 -10z"/>
<path d="M15804 19975 c-7 -28 9 -75 25 -75 6 0 16 10 22 23 7 12 17 25 23 29
14 9 -9 33 -41 42 -18 6 -24 2 -29 -19z"/>
<path d="M16080 19875 c0 -2 48 -28 106 -57 58 -29 109 -59 114 -68 11 -21 18
-61 21 -125 l2 -50 7 45 c4 28 8 35 9 20 2 -17 7 -8 17 30 8 30 13 63 11 72
-3 11 0 15 9 11 8 -3 14 0 14 6 0 6 -3 11 -7 12 -36 4 -56 9 -108 30 -33 13
-63 22 -67 21 -5 -1 -8 3 -8 8 0 6 -3 9 -7 8 -9 -1 -60 17 -85 32 -19 11 -28
13 -28 5z"/>
<path d="M15330 18868 c-3 -37 -1 -63 3 -59 4 4 7 35 5 67 l-3 59 -5 -67z"/>
<path d="M15333 18463 c-3 -7 3 -25 12 -39 9 -15 13 -24 7 -20 -5 3 -12 -1
-16 -9 -4 -10 1 -15 14 -15 11 0 20 -4 20 -10 0 -5 -6 -7 -13 -5 -15 6 -19
-186 -4 -196 5 -4 12 -39 15 -78 3 -53 8 -69 16 -61 13 13 14 122 2 310 -7
127 -9 136 -28 136 -11 0 -23 -6 -25 -13z"/>
<path d="M18467 35442 c-5 -7 -5 -21 -2 -32 5 -15 3 -18 -9 -14 -40 15 -51
-138 -17 -227 26 -68 85 -161 154 -244 50 -61 81 -82 93 -64 3 5 14 7 25 4 12
-4 21 -1 25 9 3 9 14 16 24 16 10 0 23 6 29 14 20 24 82 26 138 4 l51 -21 39
31 c69 55 151 146 187 206 32 54 36 67 36 130 0 81 -11 111 -29 79 -18 -34
-98 -65 -178 -69 -41 -2 -75 1 -78 6 -4 6 -10 8 -14 6 -4 -3 -34 -1 -67 4 -32
5 -99 11 -147 13 -49 3 -94 10 -100 16 -6 6 -18 11 -26 11 -20 1 -61 34 -61
49 0 6 -7 11 -15 11 -8 0 -15 5 -15 10 0 6 -6 10 -14 10 -9 0 -16 12 -18 28
-2 18 -6 23 -11 14z"/>
<path d="M15127 34949 c7 -7 15 -10 18 -7 3 3 -2 9 -12 12 -14 6 -15 5 -6 -5z"/>
<path d="M12965 33820 c-3 -5 -1 -10 4 -10 6 0 11 5 11 10 0 6 -2 10 -4 10 -3
0 -8 -4 -11 -10z"/>
<path d="M21045 33810 c-16 -7 -11 -9 22 -9 23 -1 45 4 48 9 8 12 -42 12 -70
0z"/>
<path d="M20762 33563 c-29 -57 -38 -137 -23 -199 7 -25 31 -86 54 -135 33
-71 47 -91 72 -101 16 -6 32 -14 35 -17 3 -4 22 -19 43 -34 20 -16 35 -33 32
-38 -4 -5 -1 -9 5 -9 6 0 18 -16 26 -35 8 -19 16 -35 19 -35 3 0 19 29 36 65
35 75 54 90 168 136 164 64 241 142 249 249 2 32 -1 74 -8 94 l-11 36 -47 -48
c-52 -54 -83 -69 -127 -65 -16 1 -37 3 -45 4 -8 0 -30 7 -48 15 -33 16 -129
21 -172 10 -14 -4 -51 -9 -83 -13 -51 -5 -60 -3 -80 18 -13 13 -27 32 -30 42
-4 10 -11 15 -17 12 -16 -10 -25 25 -12 46 11 17 7 49 -7 49 -3 0 -17 -21 -29
-47z"/>
<path d="M18677 33098 c-20 -16 -37 -36 -37 -44 0 -8 -4 -14 -9 -14 -33 0 -47
-115 -18 -148 20 -24 67 -193 82 -296 7 -48 16 -88 23 -101 4 -5 7 -16 8 -25
5 -50 97 -260 114 -260 5 0 7 -7 4 -15 -4 -8 1 -17 10 -21 9 -3 16 -12 16 -20
0 -8 8 -19 19 -25 11 -8 16 -19 13 -32 -4 -16 -1 -18 19 -12 19 5 21 4 9 -4
-13 -10 -13 -12 0 -21 32 -21 71 -5 53 23 -4 6 -9 55 -10 107 -3 126 -4 139
-14 180 -4 19 -10 57 -14 84 -3 27 -9 54 -13 60 -3 6 -7 18 -9 26 -3 20 -11
85 -18 145 -4 28 -9 57 -12 65 -4 8 -7 18 -7 22 -1 3 -4 10 -8 14 -5 4 -8 14
-8 22 0 13 -20 64 -40 102 -4 9 -11 30 -15 48 -3 18 -11 32 -16 32 -5 0 -9 8
-9 18 0 10 -5 23 -12 30 -7 7 -9 12 -5 12 13 0 -22 59 -41 69 -13 7 -26 2 -55
-21z"/>
<path d="M20517 31715 c-4 -8 -2 -17 3 -20 6 -4 10 -4 10 -1 0 2 3 11 6 20 3
9 2 16 -4 16 -5 0 -12 -7 -15 -15z"/>
<path d="M20370 31700 c-8 -26 -7 -41 2 -32 6 6 8 16 5 24 -3 7 -6 11 -7 8z"/>
<path d="M16250 30769 c0 -5 5 -7 10 -4 6 3 10 8 10 11 0 2 -4 4 -10 4 -5 0
-10 -5 -10 -11z"/>
<path d="M17478 30248 c5 -5 16 -8 23 -6 8 3 3 7 -10 11 -17 4 -21 3 -13 -5z"/>
<path d="M19330 29906 c0 -7 9 -16 20 -19 17 -4 18 -2 9 14 -11 22 -29 25 -29
5z"/>
<path d="M19295 29900 c3 -5 8 -10 11 -10 2 0 4 5 4 10 0 6 -5 10 -11 10 -5 0
-7 -4 -4 -10z"/>
<path d="M15749 27919 c-166 -107 -266 -195 -245 -216 7 -8 31 17 69 71 10 14
69 60 132 101 100 66 126 85 112 85 -2 0 -33 -19 -68 -41z"/>
<path d="M15734 27454 c-18 -14 -18 -15 4 -4 12 6 22 13 22 15 0 8 -5 6 -26
-11z"/>
<path d="M15590 27366 c-52 -38 -73 -61 -68 -75 1 -5 31 17 66 50 70 66 70 76
2 25z"/>
<path d="M15990 27199 c-35 -31 -35 -31 -3 -9 18 11 35 25 38 30 10 16 2 11
-35 -21z"/>
<path d="M15858 27110 c-75 -52 -134 -97 -108 -84 32 16 180 115 185 124 11
18 -2 11 -77 -40z"/>
<path d="M17788 26613 c7 -3 16 -2 19 1 4 3 -2 6 -13 5 -11 0 -14 -3 -6 -6z"/>
<path d="M18050 26346 c0 -9 5 -16 10 -16 6 0 10 4 10 9 0 6 -4 13 -10 16 -5
3 -10 -1 -10 -9z"/>
<path d="M18065 26270 c-3 -5 1 -10 9 -10 9 0 16 5 16 10 0 6 -4 10 -9 10 -6
0 -13 -4 -16 -10z"/>
<path d="M15175 25730 c-4 -6 -11 -7 -17 -4 -7 4 -8 2 -4 -5 6 -9 11 -9 22 0
14 11 18 19 10 19 -3 0 -8 -5 -11 -10z"/>
<path d="M15047 25304 c-10 -11 -8 -76 2 -70 13 9 23 58 13 68 -4 4 -11 5 -15
2z"/>
<path d="M16481 25224 c0 -11 3 -14 6 -6 3 7 2 16 -1 19 -3 4 -6 -2 -5 -13z"/>
<path d="M15811 23514 c0 -65 3 -92 9 -79 8 17 9 16 9 -9 1 -22 4 -26 14 -18
20 17 20 77 0 93 -16 13 -17 12 -4 -3 9 -12 10 -18 2 -18 -6 0 -11 3 -11 8 -4
59 -10 115 -15 120 -3 3 -5 -39 -4 -94z"/>
<path d="M15680 20483 c0 -9 3 -13 7 -10 3 4 12 2 19 -3 8 -8 17 -6 28 6 10 9
14 19 11 22 -3 4 -10 0 -15 -8 -7 -12 -12 -12 -22 -2 -17 17 -28 15 -28 -5z"/>
</g>
</svg>
