<?xml version="1.0" standalone="no"?>
<!DOCTYPE svg PUBLIC "-//W3C//DTD SVG 20010904//EN"
 "http://www.w3.org/TR/2001/REC-SVG-20010904/DTD/svg10.dtd">
<svg version="1.0" xmlns="http://www.w3.org/2000/svg"
 width="3524.000000pt" height="4096.000000pt" viewBox="0 0 3524.000000 4096.000000"
 preserveAspectRatio="xMidYMid meet">

<g transform="translate(0.000000,4096.000000) scale(0.100000,-0.100000)"
fill="#000000" stroke="none">
<path d="M17277 31315 c-267 -37 -401 -146 -476 -389 -55 -179 -11 -336 159
-562 45 -59 86 -116 91 -126 8 -15 0 -37 -40 -106 -27 -48 -58 -109 -69 -137
-11 -27 -46 -115 -77 -195 -66 -167 -104 -239 -145 -274 -33 -27 -98 -48 -205
-65 -153 -25 -239 -71 -274 -146 -20 -43 -22 -54 -12 -108 17 -95 90 -216 221
-362 78 -87 140 -181 140 -212 0 -34 -40 -142 -68 -185 -13 -21 -21 -42 -16
-49 4 -7 3 -10 -3 -6 -6 4 -13 -2 -16 -14 -5 -17 -3 -18 9 -8 12 10 13 9 8 -5
-3 -9 -14 -16 -23 -16 -14 0 -14 -2 -1 -10 13 -8 13 -10 -2 -10 -44 0 -124
-202 -143 -360 -19 -164 -41 -231 -102 -318 -58 -82 -199 -204 -280 -243 -81
-39 -188 -58 -319 -59 -109 0 -120 4 -152 58 l-19 33 -6 -31 c-5 -21 -12 -30
-26 -30 -37 0 -59 33 -80 120 -29 116 -102 260 -212 415 -248 349 -335 484
-443 690 -26 49 -51 94 -56 100 -15 18 -29 129 -21 165 l7 34 26 -34 c14 -19
52 -82 85 -140 205 -362 327 -560 344 -560 5 0 -38 91 -95 203 -100 194 -146
310 -146 366 0 14 12 53 26 86 57 133 75 188 75 244 1 107 -64 228 -158 293
l-47 32 26 -45 c54 -92 98 -187 100 -219 3 -36 -3 -40 -84 -53 -61 -9 -109 46
-203 233 -64 127 -60 122 -102 105 -49 -21 -54 -20 -169 25 -63 24 -123 41
-158 43 -69 4 -91 23 -136 115 -69 141 -121 189 -227 212 -43 10 -63 9 -109
-5 -31 -9 -68 -23 -81 -32 -62 -41 -103 -171 -103 -330 0 -115 -8 -125 -145
-184 -127 -54 -165 -90 -194 -183 -25 -82 -27 -168 -5 -274 31 -151 66 -193
245 -291 53 -30 89 -57 100 -76 23 -39 38 -174 45 -410 7 -209 -1 -294 -41
-440 -14 -49 -38 -146 -55 -215 -36 -151 -85 -256 -151 -322 -69 -68 -86 -66
-175 25 -90 91 -103 126 -85 225 13 69 11 206 -3 219 -5 5 -15 -2 -23 -14 -27
-40 -91 -32 -210 28 l-101 52 -51 -32 c-28 -17 -58 -31 -66 -31 -40 0 -48 104
-12 168 26 48 87 116 112 126 10 3 15 9 12 12 -11 12 -113 -44 -149 -82 -21
-21 -43 -54 -49 -74 -30 -90 -107 -223 -136 -234 -31 -12 -107 77 -288 339
-141 204 -192 287 -207 337 -10 34 -9 40 16 72 39 52 80 80 185 126 100 44
151 75 151 92 0 6 -22 49 -49 97 -35 63 -53 109 -66 171 -30 150 -36 163 -78
184 -21 10 -82 24 -135 32 -76 10 -118 23 -193 58 -89 42 -136 58 -235 85 -23
6 -59 25 -80 42 -52 43 -177 101 -206 97 -12 -2 -28 -14 -35 -28 -19 -38 -16
-184 7 -286 36 -163 28 -213 -50 -319 -37 -51 -62 -94 -144 -247 -57 -108 -58
-131 -10 -315 78 -299 89 -368 58 -394 -13 -11 -22 -10 -52 6 -74 40 -149 250
-174 484 -10 99 -15 114 -32 122 -12 4 -95 20 -187 34 -180 29 -228 26 -271
-17 -18 -18 -20 -28 -15 -77 15 -134 240 -718 405 -1046 35 -71 89 -192 119
-268 29 -76 87 -211 127 -300 41 -89 99 -226 130 -304 76 -195 173 -402 266
-563 196 -341 212 -396 214 -730 1 -318 -15 -373 -183 -605 -82 -113 -174
-256 -266 -410 -40 -66 -136 -226 -215 -355 -78 -129 -208 -343 -287 -474 -80
-132 -175 -287 -212 -345 -130 -204 -365 -612 -511 -886 -29 -55 -73 -136 -98
-180 -79 -143 -346 -686 -409 -835 -115 -268 -284 -674 -359 -860 -102 -251
-125 -304 -234 -535 -247 -524 -316 -697 -415 -1042 -66 -228 -72 -265 -52
-297 9 -14 58 -51 107 -83 344 -221 427 -282 630 -461 58 -52 149 -126 204
-165 211 -153 455 -341 707 -542 144 -115 340 -271 434 -346 423 -337 837
-713 1400 -1269 204 -201 426 -419 495 -485 212 -203 889 -882 1026 -1030 71
-78 210 -226 308 -330 167 -177 523 -585 703 -806 43 -53 135 -165 204 -250
136 -167 598 -769 721 -939 394 -548 934 -1369 1090 -1660 44 -82 102 -191
286 -535 305 -570 588 -1239 737 -1740 42 -140 102 -287 133 -324 l28 -34 26
34 c65 85 470 844 771 1444 179 356 213 418 558 1020 182 316 257 442 379 635
26 41 96 152 156 245 207 327 633 956 938 1385 37 52 139 199 227 325 212 304
449 614 604 790 34 39 200 237 370 440 170 204 362 431 428 505 254 285 1295
1295 1701 1648 252 221 709 646 946 882 108 107 259 244 360 325 96 77 231
187 301 245 90 74 179 135 306 209 244 142 440 274 552 370 57 49 107 85 130
90 20 6 104 26 186 46 316 75 411 126 435 232 21 91 -54 323 -265 818 -83 193
-362 888 -455 1130 -169 442 -270 661 -753 1635 -343 691 -357 717 -980 1754
-443 740 -608 1031 -648 1143 -36 102 -33 256 10 463 59 290 160 545 449 1140
105 217 147 317 206 489 72 207 102 276 221 501 217 412 257 502 371 825 78
218 90 280 75 370 -17 95 -36 129 -90 158 -51 28 -176 57 -244 57 -65 0 -156
-49 -218 -118 -93 -105 -152 -232 -188 -412 -12 -58 -31 -127 -43 -155 -46
-112 -55 -141 -47 -160 13 -33 10 -118 -6 -180 -32 -121 -138 -314 -218 -394
-90 -90 -181 -125 -283 -107 -126 22 -161 185 -94 445 43 168 262 821 348
1036 85 214 97 260 96 375 -2 111 -31 262 -80 408 -33 100 -60 139 -111 158
-82 32 -208 -6 -513 -153 -215 -105 -257 -119 -365 -127 -94 -7 -161 -36 -187
-81 -30 -53 -40 -185 -37 -480 7 -697 8 -685 -68 -814 -65 -109 -182 -212
-246 -215 l-31 -1 -11 82 c-12 94 -20 110 -27 56 -3 -21 -16 -55 -28 -77 l-23
-38 -62 6 c-68 7 -111 24 -140 56 -21 24 -38 25 -73 6 -51 -28 -89 -35 -132
-25 -59 13 -80 26 -80 50 0 31 38 99 84 149 41 45 131 109 154 110 6 0 12 4
12 9 0 18 -65 -9 -132 -55 -74 -50 -111 -92 -183 -206 -27 -43 -51 -78 -55
-78 -9 0 -202 162 -303 254 -90 82 -178 190 -218 266 -20 39 -24 62 -27 178
-4 142 11 309 31 351 11 24 18 26 99 32 79 5 90 9 135 42 126 92 284 298 329
426 31 88 40 193 24 261 -22 90 -107 157 -380 296 -116 60 -163 105 -218 212
-24 45 -55 90 -68 99 -24 15 -32 15 -122 -2 -127 -24 -195 -47 -242 -85 -44
-35 -118 -132 -178 -235 -23 -38 -54 -85 -69 -103 -31 -36 -26 -35 -218 -47
-71 -4 -103 -12 -150 -34 -124 -59 -263 -205 -300 -316 -18 -51 -18 -56 -2
-115 20 -70 53 -138 126 -259 28 -46 51 -88 51 -94 0 -12 -67 -94 -153 -185
-87 -94 -133 -165 -246 -387 l-92 -180 51 55 c59 62 182 231 293 400 71 109
93 145 150 251 84 157 107 188 157 214 24 13 33 13 50 3 29 -18 55 -96 75
-223 34 -221 18 -360 -56 -475 -35 -54 -130 -196 -146 -220 -36 -50 -113 -119
-153 -137 -8 -3 -27 -15 -42 -25 -14 -10 -33 -18 -41 -18 -9 0 -28 -5 -44 -12
-15 -6 -36 -13 -45 -14 -9 -2 -36 -11 -60 -19 -24 -9 -64 -22 -89 -30 -25 -8
-66 -26 -91 -39 -26 -14 -49 -22 -52 -19 -3 3 -12 0 -21 -7 -11 -9 -15 -9 -15
-1 0 7 -4 10 -9 7 -5 -3 -12 17 -16 46 l-7 52 -15 -29 c-9 -15 -26 -59 -39
-97 -45 -134 -72 -158 -178 -158 -122 0 -245 32 -402 105 -117 54 -195 108
-266 182 -62 66 -74 96 -118 303 -12 58 -44 182 -72 275 -60 208 -70 298 -39
368 34 80 94 157 205 265 141 138 184 229 156 331 -20 74 -83 125 -264 214
-88 43 -180 92 -205 109 -136 92 -355 316 -405 415 -42 82 3 312 104 534 68
149 89 216 96 311 15 201 -68 379 -213 455 -114 61 -318 79 -546 48z m212
-1841 c34 -7 42 -33 15 -55 -8 -7 -27 -34 -40 -61 -13 -26 -29 -48 -34 -48 -6
0 -10 18 -10 40 0 23 -7 52 -16 65 -18 27 -12 42 20 55 27 11 28 11 65 4z
m3456 -94 c215 -1 225 -2 236 -22 8 -14 6 -88 -6 -271 -9 -139 -20 -268 -24
-287 l-7 -35 -55 2 c-72 4 -314 64 -374 94 -77 39 -86 57 -98 205 -6 71 -11
169 -11 219 l-1 90 30 7 c17 3 42 5 57 2 15 -2 129 -4 253 -4z m-446 -154 c35
-61 45 -90 45 -125 1 -42 -1 -46 -25 -49 -42 -5 -105 66 -119 135 -7 30 -9 71
-5 90 5 30 9 34 33 31 22 -2 35 -18 71 -82z m4198 -968 c28 -6 73 -23 100 -37
38 -21 49 -32 51 -55 4 -33 -40 -180 -73 -247 -38 -75 -40 -75 -171 -57 -63 9
-118 19 -122 22 -11 11 -2 74 28 214 36 164 50 187 105 176 17 -3 53 -10 82
-16z m-12793 -634 c3 -8 2 -12 -4 -9 -6 3 -10 10 -10 16 0 14 7 11 14 -7z m54
-89 c6 -14 10 -25 8 -25 -2 0 -11 11 -20 25 -9 14 -13 25 -8 25 5 0 14 -11 20
-25z m853 -149 c14 -12 49 -55 78 -96 28 -41 65 -94 82 -117 21 -27 33 -57 37
-88 l5 -48 -31 23 c-33 25 -176 210 -217 282 -32 56 -33 82 -2 72 12 -4 34
-16 48 -28z m9537 -22 c12 -8 22 -21 22 -28 0 -6 11 -27 25 -46 35 -47 32 -72
-11 -105 -54 -41 -119 -62 -248 -81 l-115 -16 -65 36 c-79 44 -89 66 -49 108
37 38 200 127 255 137 74 15 161 13 186 -5z m-7788 -2265 c-36 -5 -202 -20
-370 -34 -168 -14 -375 -32 -460 -40 -85 -8 -170 -14 -188 -15 -56 0 -26 17
40 23 195 19 387 39 493 52 151 19 193 21 390 22 131 0 148 -1 95 -8z m3220
-282 c91 -37 212 -114 276 -174 99 -94 139 -231 88 -300 -65 -88 -298 -234
-421 -264 -29 -7 -53 -17 -53 -22 0 -9 18 -8 198 9 42 4 67 3 77 -6 8 -6 19
-9 25 -5 19 11 11 -34 -10 -55 -11 -11 -20 -24 -20 -30 0 -5 -8 -10 -17 -11
-14 0 -14 -2 3 -9 20 -8 22 -16 20 -86 l-1 -78 -251 -152 c-137 -84 -263 -156
-279 -160 l-28 -7 7 79 c4 43 10 119 12 168 5 96 29 156 62 156 9 0 35 7 58
15 22 7 81 19 130 25 151 19 159 21 143 30 -24 15 -181 1 -301 -27 -83 -19
-98 -14 -98 31 0 26 -7 40 -32 61 -22 19 -28 29 -19 34 10 6 9 12 -4 24 -9 9
-13 22 -10 27 4 6 -1 22 -9 35 -21 32 -15 32 63 -9 36 -19 84 -38 106 -44 124
-31 141 -19 33 22 -93 35 -163 81 -232 151 -59 61 -86 110 -112 206 l-17 65
26 41 c32 51 226 195 342 254 71 36 86 40 131 36 29 -3 80 -17 114 -30z
m-2120 -29 c0 -10 2 -10 9 0 7 11 9 11 14 -2 4 -11 1 -16 -11 -17 -11 -1 -8
-4 8 -9 23 -7 22 -8 -10 -9 -19 -1 -134 -12 -255 -26 -121 -13 -274 -29 -340
-34 -289 -25 -587 -52 -665 -61 -47 -6 -130 -15 -185 -21 -55 -5 -131 -14
-170 -20 -38 -5 -140 -16 -225 -24 -85 -8 -186 -19 -225 -24 -87 -13 -199 -13
-170 -1 l20 9 -20 -1 c-11 0 -42 -6 -70 -13 l-50 -13 40 -2 c38 -1 36 -2 -24
-16 -36 -7 -95 -13 -132 -13 -37 1 -76 -4 -86 -9 -14 -8 -7 -10 27 -6 l45 4
-55 -15 c-30 -9 -69 -14 -86 -10 -17 3 -42 1 -55 -4 l-24 -10 24 0 c32 -1 25
-7 -19 -15 -27 -4 -31 -3 -20 5 12 8 10 10 -10 5 -14 -3 -32 -6 -40 -7 -8 0
-4 -5 10 -10 21 -7 19 -8 -10 -4 -19 3 -57 -2 -84 -10 -72 -22 -81 -17 -11 6
166 54 431 118 705 170 91 17 511 76 990 139 265 35 812 76 1053 79 79 1 107
-2 107 -11z m2454 -618 c-6 -6 -10 -2 -11 12 -2 16 1 18 10 9 7 -7 8 -14 1
-21z m-2461 -347 c-13 -2 -33 -2 -45 0 -13 2 -3 4 22 4 25 0 35 -2 23 -4z
m-140 -10 c-7 -2 -19 -2 -25 0 -7 3 -2 5 12 5 14 0 19 -2 13 -5z m-178 -13
c-27 -4 -102 -11 -165 -15 -63 -3 -122 -9 -130 -11 -10 -4 -12 -2 -5 5 6 6 36
12 68 13 31 2 57 5 57 8 0 3 51 6 113 7 87 1 101 -1 62 -7z m-327 -27 c-10 -2
-26 -2 -35 0 -10 3 -2 5 17 5 19 0 27 -2 18 -5z m-208 -13 c0 -5 -12 -10 -27
-10 -16 0 -53 -3 -83 -6 -30 -4 -52 -4 -49 0 3 3 35 9 70 13 35 3 66 7 68 9 8
8 21 4 21 -6z m3154 -22 c3 -13 6 -84 6 -159 l0 -137 -27 -18 c-16 -10 -66
-39 -113 -64 -47 -26 -125 -71 -175 -100 -141 -84 -209 -120 -226 -120 -15 0
-17 17 -21 118 -5 140 -2 155 27 184 13 13 127 85 254 161 127 76 233 142 236
148 11 17 33 9 39 -13z m-3509 -19 c-107 -16 -551 -62 -525 -53 20 6 288 42
375 50 39 3 72 8 74 10 2 2 32 3 65 3 l61 -2 -50 -8z m-562 -66 c-7 -2 -21 -2
-30 0 -10 3 -4 5 12 5 17 0 24 -2 18 -5z m4251 -44 c23 -46 0 -34 -24 13 -15
29 -17 38 -6 29 9 -7 22 -26 30 -42z m34 -64 c-3 -3 -9 2 -12 12 -6 14 -5 15
5 6 7 -7 10 -15 7 -18z m-195 -275 c5 -87 4 -131 -4 -146 -6 -12 -115 -83
-242 -160 -214 -128 -304 -190 -293 -201 2 -2 30 15 63 40 54 41 417 264 454
279 35 14 42 -6 47 -148 l5 -139 -27 -27 c-27 -27 -66 -54 -216 -149 -130 -83
-212 -151 -320 -262 -54 -56 -101 -99 -103 -97 -7 7 -15 293 -9 329 3 21 23
53 60 92 30 33 53 62 50 64 -2 2 -24 -9 -48 -25 -24 -16 -46 -28 -47 -26 -7 7
30 223 44 261 8 22 20 65 27 95 10 48 18 59 58 90 40 30 249 149 413 235 77
40 79 39 88 -105z m349 53 c131 -196 377 -601 385 -631 4 -17 10 -21 22 -16 9
4 45 15 81 25 97 28 148 3 199 -98 30 -61 27 -88 -17 -142 -22 -25 -46 -58
-56 -72 -12 -19 -25 -26 -53 -27 -20 -1 -43 -8 -53 -17 -9 -8 -33 -15 -53 -15
-28 0 -37 -5 -43 -22 -4 -12 -26 -41 -50 -64 -51 -50 -94 -128 -101 -184 -5
-33 -2 -41 13 -46 11 -3 26 -9 34 -13 21 -11 67 -20 110 -23 19 -1 40 -5 47
-10 6 -5 14 -5 18 2 3 6 11 8 16 4 16 -10 59 5 54 19 -9 23 29 36 73 25 28 -7
50 -7 71 0 16 6 32 8 36 4 3 -3 18 -8 33 -10 15 -2 34 -10 43 -18 19 -17 39
-18 39 -2 0 6 6 4 13 -6 13 -17 15 -16 35 15 20 33 21 49 1 49 -6 0 -7 -6 -3
-12 4 -7 3 -9 -1 -5 -5 4 -10 15 -11 23 -2 14 7 15 61 11 58 -4 62 -3 53 13
-13 21 20 69 79 117 80 63 95 65 182 22 34 -17 63 -30 65 -28 1 2 22 36 46 74
23 39 56 86 71 106 36 46 36 60 -1 121 -16 26 -30 58 -30 69 0 26 73 115 111
134 62 33 134 4 176 -70 48 -85 20 -151 -87 -205 -56 -28 -95 -68 -151 -152
-13 -21 -27 -38 -30 -38 -4 0 -19 -27 -34 -61 -15 -34 -40 -80 -55 -103 -16
-23 -32 -55 -36 -71 -3 -17 -32 -62 -64 -101 -32 -39 -61 -80 -64 -92 -4 -11
-13 -26 -21 -32 -21 -18 -19 -44 11 -106 14 -30 27 -63 29 -72 2 -9 4 -17 5
-17 1 0 4 -17 6 -39 5 -56 29 -79 76 -71 37 7 38 6 38 -25 0 -35 13 -35 -175
1 -253 48 -670 89 -911 89 -123 0 -133 7 -88 66 15 19 24 37 22 40 -3 3 -125
-120 -271 -273 -147 -153 -309 -316 -361 -363 -59 -53 -90 -87 -83 -92 6 -4
14 -3 17 2 3 5 6 -14 5 -44 l0 -53 40 46 c51 59 200 216 243 254 17 16 32 33
32 39 0 9 165 208 246 297 l41 44 74 -2 c98 -2 664 -48 759 -62 162 -22 259
-69 281 -136 6 -21 17 -41 23 -45 6 -4 11 -11 12 -15 0 -4 7 -43 14 -86 l14
-78 51 3 c44 3 50 6 53 27 5 29 39 60 68 61 19 0 22 -7 28 -61 3 -34 3 -66 -1
-71 -6 -11 -110 -6 -268 12 -281 32 -752 73 -995 85 -365 19 -328 20 -300 -9
17 -19 31 -24 58 -22 75 6 111 -47 41 -59 l-38 -7 27 -51 c16 -29 34 -62 42
-74 12 -19 10 -30 -25 -105 -21 -45 -58 -144 -82 -218 -51 -154 -66 -253 -82
-550 -6 -107 -13 -219 -15 -247 -5 -54 1 -65 37 -70 39 -6 76 -34 106 -81 31
-48 40 -82 22 -82 -12 0 -81 84 -81 98 0 6 -15 19 -32 28 -30 16 -32 16 -19 1
7 -10 10 -17 7 -17 -4 0 -2 -10 5 -22 9 -17 9 -20 -2 -16 -11 4 -14 -8 -15
-51 -1 -31 -2 -65 -4 -76 l-1 -20 -9 20 c-7 16 -9 17 -9 3 -1 -9 4 -20 9 -23
6 -3 10 -15 10 -26 0 -11 -4 -18 -8 -15 -4 2 -14 -45 -21 -106 -7 -61 -15
-117 -18 -124 -2 -7 -32 -19 -66 -27 -60 -14 -51 -15 213 -17 151 -1 297 -3
325 -5 27 -1 370 -6 762 -10 392 -4 713 -10 713 -13 0 -3 -16 -29 -35 -58 -63
-95 -92 -265 -98 -574 -1 -75 -6 -138 -12 -142 -5 -5 -113 -8 -239 -7 l-228 0
6 32 c16 81 18 110 7 172 -30 168 -128 274 -293 314 -26 6 -103 16 -170 21
-282 24 -594 -27 -798 -130 -126 -64 -360 -215 -650 -420 -91 -64 -264 -187
-385 -272 -426 -299 -485 -342 -485 -353 0 -6 32 -37 71 -70 39 -33 75 -68 80
-77 5 -10 14 -18 19 -18 9 0 66 -40 215 -150 28 -20 95 -70 150 -110 55 -40
132 -96 170 -125 225 -166 334 -244 365 -260 45 -23 115 -80 239 -195 208
-194 436 -335 615 -380 99 -25 333 -28 441 -5 130 28 236 99 283 191 l19 37 5
-28 c8 -42 -39 -123 -98 -168 -93 -71 -263 -104 -484 -93 -177 8 -275 38 -453
138 -78 44 -321 217 -423 302 -18 14 -37 26 -43 26 -6 0 -11 4 -11 9 0 5 -8
12 -17 15 -10 3 -30 17 -44 30 -15 14 -29 23 -31 20 -3 -2 -23 0 -44 5 -22 5
-30 9 -17 10 12 1 25 6 29 13 5 8 0 9 -14 6 -15 -4 -22 -2 -22 8 0 8 -10 14
-25 14 -14 0 -25 5 -25 11 0 5 -4 7 -10 4 -5 -3 -10 -1 -10 4 0 6 -4 11 -10
11 -5 0 -7 -7 -4 -15 4 -11 0 -15 -16 -15 -18 0 -20 3 -11 14 10 12 8 13 -11
9 -13 -3 -28 -12 -35 -20 -6 -8 -14 -10 -17 -5 -3 6 0 12 8 15 11 4 21 57 11
57 -18 0 -35 -16 -35 -33 0 -16 -3 -18 -12 -9 -8 8 -8 15 0 25 12 14 5 57 -9
57 -5 0 -6 -7 -3 -15 4 -10 0 -15 -15 -15 -18 0 -19 3 -10 28 l10 27 -26 -29
c-19 -22 -28 -27 -37 -18 -8 8 -15 8 -24 1 -8 -7 -14 -7 -19 1 -9 15 -25 12
-25 -5 0 -9 6 -12 16 -8 12 4 15 2 12 -8 -3 -8 -17 -13 -37 -13 -38 2 -40 -3
-5 -17 15 -5 24 -12 21 -15 -3 -3 -1 -19 3 -35 5 -18 5 -27 -1 -24 -5 4 -12
-2 -16 -11 -5 -14 -9 -11 -19 17 -12 31 -13 32 -19 12 -6 -18 -11 -21 -25 -13
-14 7 -20 5 -25 -8 -6 -15 -8 -15 -26 7 -10 13 -19 18 -19 12 0 -6 -13 -11
-30 -11 -20 0 -54 17 -101 51 -40 28 -69 44 -66 36 4 -11 2 -14 -9 -10 -8 3
-13 12 -10 19 3 8 0 11 -9 7 -8 -3 -18 2 -21 11 -3 9 -10 13 -15 10 -5 -3 -36
15 -68 40 -33 25 -64 46 -70 46 -6 0 -11 8 -11 17 0 9 -3 14 -6 10 -7 -7 -25
9 -42 38 -7 13 -12 15 -12 6 0 -11 -4 -10 -19 3 -12 11 -17 25 -14 34 5 13 3
14 -6 6 -9 -8 -20 -4 -42 18 -16 17 -26 35 -22 41 4 8 1 8 -9 -1 -12 -10 -17
-10 -27 1 -6 8 -8 17 -4 21 4 4 0 4 -10 0 -11 -4 -19 0 -23 10 -3 9 -14 16
-24 16 -9 0 -25 9 -35 20 -10 11 -13 20 -7 20 7 0 12 5 12 12 0 9 -3 9 -11 1
-12 -12 -59 3 -59 19 0 4 -7 8 -15 8 -8 0 -15 4 -15 8 0 5 -7 9 -16 9 -14 0
-14 -2 2 -13 32 -22 65 -48 98 -77 44 -40 2 -17 -89 49 -38 28 -80 56 -92 62
-12 7 -29 20 -39 29 -16 16 -19 16 -64 -8 l-48 -26 8 23 c16 40 -42 66 -101
45 -21 -7 -29 -6 -33 5 -3 8 -11 14 -18 14 -9 0 -8 -3 2 -10 11 -7 5 -10 -22
-10 -21 0 -38 -4 -38 -9 0 -5 -7 -12 -16 -15 -9 -3 -12 -2 -8 5 7 12 -47 9
-56 -3 -3 -3 -23 0 -45 7 -28 10 -43 11 -52 3 -7 -6 -13 -7 -13 -4 0 4 -9 2
-19 -4 -14 -7 -27 -7 -46 2 -21 10 -28 9 -35 -2 -10 -17 -60 -23 -60 -7 0 8
-3 8 -9 -1 -4 -7 -24 -15 -44 -16 -20 -2 -34 1 -31 5 10 17 -13 9 -31 -11 -14
-16 -20 -17 -27 -8 -6 10 -8 10 -8 -1 0 -7 -6 -11 -15 -7 -9 3 -15 0 -15 -9 0
-8 -3 -14 -8 -12 -13 4 -51 -42 -58 -70 -6 -27 -65 -156 -69 -150 -7 7 -16
416 -21 902 -3 308 -9 634 -13 725 -9 179 -12 191 -77 283 -19 26 -34 50 -34
53 0 3 75 3 168 0 92 -3 273 -8 402 -12 129 -3 239 -9 243 -14 9 -8 -9 -30
-54 -65 -39 -30 -46 -52 -53 -145 -10 -143 -17 -1050 -9 -1128 l8 -74 85 58
c369 250 825 586 1235 909 167 132 408 314 480 363 63 42 214 117 298 147 67
24 52 29 -29 10 -135 -31 -189 -63 -558 -328 -43 -32 -81 -57 -85 -57 -4 0 -8
44 -9 98 -3 141 -11 201 -35 251 -23 51 -25 70 -30 344 -3 142 -1 197 7 193
46 -18 43 -25 39 111 -4 129 -41 554 -49 562 -2 2 -5 -4 -6 -15 0 -10 -4 26
-8 81 -6 98 -41 228 -76 282 -8 12 -14 29 -14 37 0 8 -7 19 -15 23 -12 7 -21
30 -24 66 -2 17 -21 4 -42 -29 -23 -37 -38 -147 -24 -182 6 -16 7 -16 16 1 6
9 18 17 27 17 11 0 13 -3 5 -8 -8 -5 -8 -12 2 -26 8 -10 19 -15 25 -11 6 4 9
1 8 -7 -2 -7 -11 -16 -20 -20 -10 -4 -18 -15 -18 -23 0 -9 5 -13 10 -10 6 3
10 -1 10 -9 0 -10 -9 -16 -23 -16 -33 0 -47 -15 -107 -115 -30 -49 -71 -113
-92 -141 -21 -28 -43 -65 -49 -82 -14 -40 -34 -43 -24 -4 3 15 40 85 80 156
81 141 92 178 97 322 l3 92 -55 -61 c-103 -112 -162 -211 -226 -377 -16 -41
-30 -67 -32 -59 -3 18 44 140 94 242 37 76 106 168 185 244 107 102 128 130
177 225 46 90 57 138 31 138 -5 0 -6 6 -3 14 3 9 -3 20 -15 28 -24 14 -27 34
-8 41 6 3 -17 4 -53 2 -36 -2 -119 -7 -185 -10 -66 -4 -214 -15 -330 -26 -208
-19 -340 -24 -267 -10 18 3 31 9 30 13 -6 13 64 76 103 93 21 10 39 22 39 27
0 4 5 8 11 8 20 0 149 84 149 96 0 7 19 19 41 28 23 9 54 29 69 44 14 15 48
33 73 41 39 11 47 17 47 38 0 13 4 21 10 18 5 -3 20 3 32 14 26 25 32 26 52 6
8 -8 17 -15 20 -15 22 0 604 -617 670 -710 l18 -25 -5 37 c-4 27 -2 38 9 42
14 5 14 8 0 22 -9 8 -16 24 -16 34 0 11 -122 143 -304 327 -168 169 -331 340
-363 380 -31 39 -61 69 -64 67 -4 -2 0 -27 9 -55 20 -61 13 -69 -68 -69 -62 0
-88 -2 -424 -31 -132 -11 -319 -33 -415 -50 -256 -44 -254 -44 -249 -28 5 15
141 49 393 97 89 17 174 38 190 46 17 9 39 16 50 16 29 1 104 37 111 54 3 8
17 17 30 20 19 5 24 11 19 26 -5 14 -2 20 9 20 9 0 16 7 16 15 0 8 9 19 20 25
11 6 20 16 20 23 0 7 11 21 25 31 13 10 22 23 18 29 -3 5 -1 7 5 3 9 -5 66 47
105 97 15 19 83 57 102 57 8 0 15 5 15 11 0 5 5 7 10 4 6 -3 10 -1 10 5 0 26
33 20 73 -12 23 -20 71 -50 107 -68 63 -32 67 -32 157 -26 106 7 126 13 119
33 -3 7 -1 35 4 61 5 26 14 81 21 122 6 41 19 86 27 100 31 50 149 174 235
246 146 123 361 259 391 248 20 -7 19 1 21 -385 0 -254 3 -310 15 -324 8 -10
15 -34 15 -54 l0 -36 124 -3 c191 -4 257 25 374 165 57 69 88 114 155 225 12
20 25 28 45 28 31 0 33 9 13 48 -19 37 -56 195 -56 240 0 44 -19 84 -99 212
-33 52 -81 131 -107 175 -27 44 -73 118 -103 165 -92 144 -112 180 -97 180 7
0 25 -17 38 -37z m-6522 -93 c0 -5 -2 -10 -4 -10 -3 0 -8 5 -11 10 -3 6 -1 10
4 10 6 0 11 -4 11 -10z m11620 -145 c0 -3 -12 -29 -27 -57 -47 -89 -197 -234
-555 -539 -36 -30 -90 -83 -120 -116 l-54 -62 4 -85 c5 -104 -1 -132 -31 -140
-35 -8 -68 4 -63 23 3 9 7 43 11 75 4 33 14 73 23 89 9 16 21 38 27 48 5 11
13 19 17 19 5 0 8 5 8 12 0 9 -3 9 -11 1 -6 -6 -17 -9 -23 -7 -7 3 -21 -4 -31
-16 -21 -23 -55 -27 -55 -6 0 38 170 211 375 381 66 55 176 155 244 222 68 68
128 123 132 123 5 0 9 6 9 14 0 8 6 17 13 19 16 7 107 8 107 2z m-11610 -26
c0 -5 -8 -5 -17 -2 -16 6 -16 5 -5 -10 8 -9 20 -13 29 -10 11 5 14 3 9 -6 -5
-8 -18 -10 -34 -6 -33 8 -44 24 -29 40 12 13 47 8 47 -6z m5540 -8 c0 -17 -12
-41 -21 -41 -10 0 -12 33 -2 43 9 10 23 9 23 -2z m-5554 -77 c-6 -16 -8 -16
-20 6 -16 31 -9 47 12 27 9 -9 12 -23 8 -33z m3726 -301 c51 -46 61 -118 29
-204 l-20 -51 44 -66 c83 -125 110 -161 122 -162 7 0 29 11 49 25 65 44 159
28 206 -36 14 -19 33 -55 42 -81 14 -37 23 -48 39 -48 21 -1 22 -1 3 -15 -16
-12 -18 -19 -9 -37 10 -23 32 -99 37 -128 4 -31 16 -37 66 -34 27 2 50 2 50
-1 0 -14 -53 -35 -114 -45 -65 -10 -72 -9 -120 14 -70 35 -185 137 -249 221
-30 39 -88 139 -131 224 -69 141 -79 155 -105 157 -77 9 -169 76 -173 127 -6
91 31 157 98 176 35 10 107 -10 136 -36z m1046 0 c70 -52 85 -111 57 -228 -8
-33 -14 -67 -15 -75 0 -9 48 -69 108 -134 59 -66 118 -133 131 -150 24 -31 24
-31 -15 4 -21 19 -91 85 -154 146 l-115 112 -84 22 c-46 11 -92 25 -101 30
-18 10 -75 142 -73 171 2 26 52 88 88 111 40 25 133 21 173 -9z m2602 -332 c0
-12 -73 -99 -98 -117 -12 -8 -34 -14 -49 -13 -15 0 -38 -2 -50 -6 -14 -4 -23
-3 -23 3 0 6 15 15 34 22 18 6 44 22 57 37 52 56 129 101 129 74z m-6650 -36
c17 11 16 -34 -2 -84 l-20 -53 -15 29 c-8 15 -17 50 -20 76 l-6 48 27 -11 c15
-5 31 -8 36 -5z m6370 -22 c0 -25 0 -26 -20 -8 -11 10 -20 22 -20 27 0 4 9 8
20 8 15 0 20 -7 20 -27z m-4417 -364 c-6 -6 -45 -13 -85 -15 l-73 -3 64 9 c34
5 68 11 75 14 21 8 30 6 19 -5z m8397 -4 c625 -9 963 -16 1030 -20 36 -2 158
-7 271 -10 114 -3 360 -17 548 -29 273 -19 345 -26 366 -40 35 -23 31 -39 -12
-60 -44 -21 -103 -23 -803 -32 -261 -3 -488 -5 -505 -6 -48 0 -267 12 -305 18
-101 15 -236 25 -370 28 -354 9 -636 18 -695 23 -80 6 -124 8 -392 18 -186 7
-263 0 -263 -25 0 -10 15 5 -204 -205 -151 -144 -183 -170 -209 -170 -17 0
-32 5 -34 11 -3 10 253 254 360 342 29 23 58 47 65 53 24 20 11 29 -42 29 -30
0 -57 4 -61 9 -3 5 -30 13 -61 17 -74 9 -57 22 47 36 205 27 318 28 1269 13z
m-9483 -10 c420 0 763 -3 763 -6 0 -13 -50 -49 -130 -94 -208 -117 -207 -116
-209 -280 -1 -59 -3 -111 -5 -114 -13 -23 -21 -607 -12 -856 2 -49 7 -328 10
-620 4 -291 8 -550 11 -576 4 -54 -10 -67 -84 -76 -40 -5 -49 -2 -57 13 -11
24 -13 738 -4 1089 15 520 48 1058 71 1148 6 23 10 52 10 65 -1 13 3 21 8 18
16 -10 33 21 23 41 -14 24 11 71 40 75 29 4 37 43 11 56 -11 6 -37 7 -63 2
-25 -4 -312 -11 -639 -15 -326 -4 -603 -8 -615 -10 -11 -2 -167 -6 -346 -10
-179 -3 -458 -11 -620 -16 -443 -17 -1313 -17 -1430 -1 -149 20 -149 41 1 72
155 32 501 51 1154 64 402 8 978 26 1105 35 63 4 144 5 180 2 36 -3 408 -5
827 -6z m830 -21 c-3 -3 -12 -4 -19 -1 -8 3 -5 6 6 6 11 1 17 -2 13 -5z m1083
-69 c-7 -8 -20 -15 -30 -15 -10 0 -23 7 -30 15 -11 13 -7 15 30 15 37 0 41 -2
30 -15z m368 -336 c-22 -14 -29 -10 -18 10 5 11 10 30 10 44 0 43 15 40 18 -4
2 -27 -1 -45 -10 -50z m3965 40 c-6 -6 -10 1 -10 23 0 30 1 30 10 10 7 -15 7
-26 0 -33z m127 -214 c0 -8 -9 -15 -20 -15 -15 0 -20 7 -20 25 0 23 2 24 20
15 11 -6 20 -17 20 -25z m-4205 -5 c8 -13 -5 -61 -16 -54 -12 7 -12 64 0 64 6
0 12 -4 16 -10z m1 -451 c5 -332 8 -490 13 -525 2 -22 50 -32 179 -39 161 -9
233 -23 127 -24 -38 0 -128 4 -198 9 -156 11 -160 14 -268 159 -101 135 -159
245 -159 300 0 23 5 41 10 41 6 0 11 -3 11 -7 1 -5 3 -21 5 -36 5 -48 58 -147
127 -242 36 -49 78 -107 93 -127 35 -48 58 -51 51 -5 -4 17 -11 174 -18 347
-10 279 -9 442 5 505 2 11 5 22 5 24 1 2 3 2 7 -1 3 -3 7 -174 10 -379z m-486
-66 l0 -335 68 -70 c235 -244 522 -518 543 -518 4 0 10 11 13 24 9 38 96 49
188 25 63 -16 68 -27 68 -153 0 -101 3 -118 25 -160 29 -55 31 -63 9 -45 -31
26 -46 74 -55 178 -10 133 -20 146 -114 146 -74 0 -86 -9 -94 -65 l-6 -41 -35
32 c-248 226 -394 366 -660 633 -173 174 -317 321 -319 327 -7 21 119 -78 218
-172 l101 -96 0 303 c0 262 2 305 16 318 8 9 20 14 25 11 5 -4 9 -148 9 -342z
m1180 327 c0 -5 -5 -10 -11 -10 -5 0 -7 5 -4 10 3 6 8 10 11 10 2 0 4 -4 4
-10z m3919 -110 c2 -80 8 -97 42 -104 24 -5 29 -10 29 -35 0 -51 -56 -85 -67
-41 -6 22 -33 26 -51 8 -20 -20 -14 -39 11 -33 l23 6 -4 -108 c-5 -131 -18
-162 -108 -250 -62 -61 -92 -84 -198 -150 -60 -38 -103 -45 -86 -14 5 11 20
23 32 26 47 15 190 120 253 186 60 64 64 71 57 101 -4 18 -7 68 -7 111 l0 77
-28 0 c-33 0 -42 17 -33 65 5 23 13 35 23 35 18 0 53 37 53 57 0 7 5 13 10 13
19 0 10 31 -15 54 -34 31 -32 41 13 63 45 22 50 15 51 -67z m-4534 30 c3 -5 2
-10 -2 -10 -5 0 -9 -18 -9 -39 -1 -30 2 -38 12 -34 8 3 14 -1 14 -10 0 -20
-16 -31 -25 -17 -4 6 -9 8 -13 6 -8 -5 -14 83 -7 102 5 15 21 16 30 2z m4199
-67 c-48 -72 -53 -98 -65 -321 -10 -201 -13 -219 -33 -239 -11 -11 -83 -53
-158 -92 -75 -40 -153 -86 -174 -102 -21 -17 -51 -33 -66 -36 -49 -10 -204
-193 -243 -286 -7 -18 -16 -57 -19 -87 -20 -167 -15 -159 -186 -335 -85 -88
-166 -177 -180 -198 -17 -24 -33 -37 -48 -37 -20 0 -21 2 -11 22 6 11 80 89
163 172 203 202 210 212 229 354 18 129 38 171 139 291 69 83 129 127 273 202
61 31 144 75 185 97 l75 41 10 244 c9 217 13 247 30 272 11 15 25 36 30 45 27
45 37 52 53 36 13 -13 13 -18 -4 -43z m-4556 -6 c10 -11 23 -15 36 -11 15 4
17 3 8 -4 -17 -12 6 -22 49 -22 26 0 29 -3 29 -32 0 -81 -55 -177 -93 -163
-21 9 -22 25 -1 69 20 41 13 66 -19 66 -36 0 -47 19 -47 80 0 56 12 89 19 53
1 -10 10 -26 19 -36z m6786 -29 c8 -80 15 -222 26 -568 5 -173 15 -405 20
-515 10 -187 14 -408 9 -447 -3 -26 -17 -22 -17 5 0 12 -5 83 -11 157 -5 74
-17 293 -26 485 -8 193 -22 478 -30 635 -19 355 -19 323 4 310 14 -7 21 -24
25 -62z m-1655 -107 c-1 -66 2 -125 6 -131 4 -6 2 -17 -4 -23 -14 -14 -15 -30
-1 -22 6 4 10 -12 9 -42 -1 -43 -2 -45 -9 -18 l-8 30 -1 -34 c0 -19 -4 -31 -7
-28 -8 8 -6 310 2 355 11 59 15 33 13 -87z m245 -113 c-200 -203 -370 -386
-561 -603 -39 -44 -99 -107 -133 -140 -93 -88 -88 -50 6 48 134 140 395 424
420 458 17 24 21 35 12 40 -9 6 -9 11 1 23 17 20 32 21 25 1 -3 -8 32 22 78
68 134 131 351 327 362 327 6 0 -89 -100 -210 -222z m-5044 192 c12 -8 11 -10
-7 -10 -13 0 -23 5 -23 10 0 13 11 13 30 0z m-935 -232 c240 -242 441 -454
466 -489 19 -26 19 -29 3 -29 -16 0 -261 240 -434 425 -41 44 -112 118 -156
165 -80 83 -119 145 -77 121 10 -5 99 -92 198 -193z m1012 105 c-3 -10 -5 -4
-5 12 0 17 2 24 5 18 2 -7 2 -21 0 -30z m2622 -37 c-9 -8 -10 -7 -5 7 3 10 7
24 7 30 1 7 3 4 6 -7 3 -10 -1 -23 -8 -30z m2390 -184 c-281 -286 -320 -326
-338 -356 -24 -40 -64 -29 -42 13 15 28 527 534 548 542 10 4 20 5 22 2 3 -2
-83 -92 -190 -201z m-5002 141 c-3 -10 -5 -2 -5 17 0 19 2 27 5 18 2 -10 2
-26 0 -35z m32 -202 c13 -161 14 -194 3 -187 -5 3 -12 54 -15 113 -4 59 -9
137 -12 173 -4 43 -3 60 3 50 6 -8 15 -75 21 -149z m1286 121 c-3 -3 -11 0
-18 7 -9 10 -8 11 6 5 10 -3 15 -9 12 -12z m1585 3 c17 -9 30 -18 30 -21 0 -4
-59 23 -69 32 -10 9 13 3 39 -11z m-184 -29 c25 -19 59 -38 75 -41 35 -8 34
-20 -3 -42 -24 -15 -28 -15 -71 13 -47 29 -75 68 -56 79 5 4 7 11 4 16 -11 17
6 9 51 -25z m310 -29 c27 -15 104 -116 104 -135 0 -21 -25 2 -62 57 -17 25
-42 56 -57 68 -28 25 -20 30 15 10z m208 -54 c-14 -32 -15 -66 -3 -133 1 -8 1
-48 1 -87 -2 -66 -4 -73 -22 -73 -14 0 -20 -7 -20 -21 0 -12 -5 -19 -12 -16
-7 2 -11 11 -9 18 2 8 6 32 8 54 3 22 12 52 19 67 8 15 14 35 13 45 0 10 -3
13 -6 6 -2 -7 -9 -13 -15 -13 -6 0 -8 34 -6 87 3 75 5 86 21 89 11 1 21 5 25
8 16 17 19 2 6 -31z m-4364 -117 c56 -83 54 -104 -7 -66 -38 23 -83 106 -83
152 l1 33 24 -30 c14 -16 43 -57 65 -89z m3804 42 c11 -22 16 -60 16 -128 0
-88 17 -239 36 -315 4 -16 27 -77 51 -133 42 -99 63 -176 63 -229 0 -48 -18
-12 -24 49 -5 40 -16 76 -31 99 -89 137 -118 235 -120 409 -1 74 -5 168 -10
208 -4 39 -5 72 -2 72 3 0 13 -14 21 -32z m2574 -26 c2 -7 -5 -15 -15 -18 -10
-3 -42 -17 -70 -30 -32 -16 -61 -23 -73 -19 -29 9 -25 21 13 35 17 7 46 18 62
25 64 27 76 28 83 7z m-4767 -14 c1 -7 0 -17 -1 -23 -7 -27 -6 -104 1 -135 6
-26 25 -50 64 -84 83 -71 88 -85 95 -271 9 -205 6 -200 203 -409 37 -40 37
-64 -2 -37 -30 22 -190 192 -205 219 -11 19 -12 24 -24 212 -11 170 -19 196
-96 279 -60 66 -62 70 -70 184 -5 72 -4 77 14 77 11 0 21 -6 21 -12z m2309 4
c0 -5 -7 -9 -15 -9 -8 0 -15 4 -15 9 0 4 7 8 15 8 8 0 15 -4 15 -8z m62 -4
c27 -23 65 -82 83 -130 30 -82 10 -76 -35 10 -24 46 -54 90 -67 99 -12 8 -23
19 -23 24 0 13 24 11 42 -3z m-1526 -15 c-14 -4 -16 -7 -6 -13 11 -7 11 -31 2
-132 -24 -245 -32 -308 -51 -380 -11 -40 -23 -104 -26 -143 -9 -103 -15 -130
-26 -114 -5 8 -9 28 -9 46 0 17 -4 43 -10 58 -13 35 6 166 31 214 13 25 23 74
29 147 11 116 14 138 31 252 10 64 14 72 33 71 19 -1 19 -2 2 -6z m2281 -40
c6 -27 15 -63 21 -80 9 -29 8 -33 -7 -33 -13 0 -22 13 -30 43 -32 112 -32 117
-6 117 6 0 16 -21 22 -47z m-2767 -82 c0 -31 -11 -51 -27 -51 -10 0 -13 6 -9
16 3 9 6 24 6 35 0 10 7 19 15 19 8 0 15 -9 15 -19z m-510 -43 c36 -21 68 -64
56 -75 -7 -7 -55 28 -90 66 -35 36 -21 40 34 9z m2740 4 c0 -4 -12 -28 -28
-53 -28 -45 -47 -82 -55 -109 -4 -10 -6 -7 -6 6 -1 25 68 164 81 164 4 0 8 -4
8 -8z m560 -89 c0 -10 -6 -72 -15 -138 -8 -66 -18 -178 -23 -248 l-8 -129 -90
-86 c-294 -283 -311 -298 -328 -292 -29 10 39 95 92 116 24 9 46 23 49 30 3 8
63 64 133 123 l127 109 9 174 c9 192 9 219 -1 265 -5 24 -2 38 16 62 26 35 39
39 39 14z m-2510 -245 c5 -95 12 -197 16 -225 13 -102 -36 -50 -72 77 -4 13
-6 91 -6 173 1 156 10 191 38 162 11 -10 17 -60 24 -187z m-249 30 c0 -84 2
-184 5 -223 l4 -70 -25 40 c-26 40 -26 42 -22 205 2 91 7 173 11 183 19 42 26
7 27 -135z m2268 120 c0 -13 3 -44 7 -69 4 -33 2 -54 -9 -75 -16 -29 -16 -28
-16 46 -1 69 6 120 15 120 2 0 4 -10 3 -22z m837 -132 c65 -75 77 -116 34
-116 -14 0 -23 14 -36 55 -21 67 -41 87 -74 77 -63 -18 -83 -59 -69 -137 6
-31 4 -43 -8 -52 -13 -10 -13 -17 -3 -48 11 -34 10 -38 -27 -86 -48 -63 -333
-327 -398 -368 -65 -41 -92 -40 -40 2 56 45 374 345 405 381 23 28 25 37 26
150 0 149 7 167 65 181 62 16 84 8 125 -39z m109 24 c22 -11 50 -20 62 -20 13
0 23 -6 23 -13 0 -19 -55 -70 -72 -65 -7 1 -37 29 -67 61 l-54 57 34 0 c19 0
52 -9 74 -20z m-868 -91 c0 -17 5 -34 12 -38 9 -6 -1 -27 -33 -74 -57 -83
-158 -207 -168 -207 -16 0 -7 16 51 95 68 91 125 191 116 205 -5 8 10 50 19
50 1 0 3 -14 3 -31z m5797 -119 c-41 -57 -117 -128 -171 -160 -27 -15 -5 11
77 94 63 64 118 116 122 116 5 0 -8 -22 -28 -50z m-6047 8 c-3 -7 -5 -2 -5 12
0 14 2 19 5 13 2 -7 2 -19 0 -25z m-14 -35 c-4 -10 -17 -30 -29 -45 -12 -16
-25 -37 -29 -48 -3 -11 -11 -20 -16 -20 -10 0 12 43 53 103 22 31 30 35 21 10z
m-1713 -148 c0 -5 -5 -3 -10 5 -5 8 -10 20 -10 25 0 6 5 3 10 -5 5 -8 10 -19
10 -25z m1583 -39 c-10 -14 -22 -26 -26 -26 -5 0 1 14 13 31 12 16 24 28 27
25 3 -2 -3 -16 -14 -30z m-293 -39 c0 -8 -7 -14 -15 -14 -16 0 -19 9 -8 20 11
11 23 8 23 -6z m-1233 -39 c58 -64 87 -130 91 -213 4 -62 3 -68 -11 -57 -9 8
-14 19 -11 26 3 7 -2 19 -11 26 -13 11 -13 15 -3 21 10 7 10 9 1 9 -7 0 -13
12 -13 27 0 26 -34 92 -77 149 -24 32 -30 54 -14 54 5 0 26 -19 48 -42z m1463
-49 c-7 -16 -16 -29 -21 -29 -16 0 -10 53 9 73 15 17 17 18 20 2 2 -9 -2 -30
-8 -46z m5809 -39 c-24 -28 -39 -55 -36 -64 13 -33 -10 -23 -60 26 -58 57 -70
81 -24 49 37 -27 46 -26 106 8 28 16 51 29 53 30 2 1 -16 -21 -39 -49z m-5699
16 c0 -3 -4 -8 -10 -11 -5 -3 -10 -1 -10 4 0 6 5 11 10 11 6 0 10 -2 10 -4z
m-157 -37 c-8 -29 -48 -52 -78 -45 -51 13 -12 59 54 64 25 2 28 -1 24 -19z
m3712 1 c7 0 26 -7 41 -15 16 -8 36 -15 45 -15 41 0 270 -85 277 -102 2 -4 11
-8 21 -8 9 0 22 -5 29 -12 7 -7 12 -8 12 -4 0 5 6 4 13 -2 23 -19 622 -314
687 -338 19 -7 59 -22 88 -33 69 -28 67 -10 -3 25 -51 24 -77 44 -59 44 4 0
75 -33 158 -73 83 -41 162 -79 176 -85 17 -7 20 -11 8 -11 -9 -1 -60 19 -114
44 -53 25 -100 43 -103 39 -8 -8 29 -34 48 -34 9 0 30 -9 46 -20 17 -11 36
-20 43 -20 7 0 24 -8 39 -17 14 -10 49 -27 77 -39 28 -11 94 -39 146 -62 52
-22 151 -63 220 -92 69 -28 132 -55 141 -60 9 -4 37 -11 63 -15 48 -8 64 -19
45 -31 -6 -3 -15 -1 -19 6 -9 15 -95 10 -279 -14 l-123 -17 -47 24 c-25 13
-84 36 -131 51 -96 31 -243 99 -645 302 -154 77 -406 198 -560 268 -299 137
-425 201 -425 217 0 6 12 20 27 33 14 12 27 34 29 47 4 41 5 44 11 32 2 -7 11
-13 18 -13z m-9105 -55 c28 -34 95 3 -845 -460 -576 -284 -772 -376 -863 -406
-69 -22 -76 -22 -164 -10 -55 8 -93 10 -95 4 -2 -5 -25 -6 -56 -2 -28 4 -61 8
-71 8 -33 2 -12 10 86 35 52 13 115 33 140 44 24 12 62 27 84 35 44 17 154 62
199 82 17 7 57 24 90 38 33 14 197 94 365 178 797 396 1083 511 1130 454z
m5480 0 c-7 -9 -15 -13 -19 -10 -3 3 1 10 9 15 21 14 24 12 10 -5z m1484 -14
c27 -30 2 -54 -33 -32 -8 5 -11 16 -6 30 8 26 17 26 39 2z m-3184 -22 c31 -42
21 -44 -25 -4 -35 30 -37 34 -18 35 13 0 30 -12 43 -31z m-1324 -16 c-10 -10
-19 5 -10 18 6 11 8 11 12 0 2 -7 1 -15 -2 -18z m1464 -23 c0 -5 -5 -10 -11
-10 -5 0 -7 5 -4 10 3 6 8 10 11 10 2 0 4 -4 4 -10z m-2 -65 c-1 -25 -6 -45
-10 -45 -4 0 -8 20 -8 45 0 25 4 45 10 45 5 0 9 -20 8 -45z m3691 -99 c-35
-36 -66 -62 -68 -60 -6 6 111 124 123 124 5 0 -19 -29 -55 -64z m-3689 29 c0
-8 -4 -15 -10 -15 -5 0 -7 7 -4 15 4 8 8 15 10 15 2 0 4 -7 4 -15z m-13 -47
c-3 -8 -6 -5 -6 6 -1 11 2 17 5 13 3 -3 4 -12 1 -19z m3453 -22 c0 -8 -35 -38
-77 -67 -43 -28 -106 -72 -141 -97 -35 -24 -65 -42 -68 -39 -9 8 198 179 241
198 49 22 45 22 45 5z m65 -17 c26 -32 30 -69 7 -77 -7 -2 -19 12 -27 35 -9
21 -20 46 -25 56 -18 30 16 20 45 -14z m-3508 -1 c-3 -8 -6 -5 -6 6 -1 11 2
17 5 13 3 -3 4 -12 1 -19z m-1962 -89 c11 -17 -1 -21 -15 -4 -8 9 -8 15 -2 15
6 0 14 -5 17 -11z m5465 -46 c-30 -32 -56 -60 -57 -62 -2 -2 -5 -2 -8 1 -3 3
1 13 10 21 8 9 15 19 15 22 0 13 42 60 58 67 37 15 34 5 -18 -49z m-1720 -119
c0 -3 -7 -16 -16 -30 -21 -30 -13 -138 12 -165 20 -22 74 -31 74 -11 0 8 6 12
15 8 15 -6 19 3 16 41 -4 41 17 33 24 -9 4 -24 10 -45 14 -48 4 -3 18 -25 33
-50 28 -50 42 -116 26 -126 -5 -3 -8 -14 -5 -24 3 -10 1 -37 -3 -60 -7 -38 -6
-41 13 -38 13 2 24 13 27 28 5 19 13 25 36 26 16 1 32 2 37 3 18 3 21 -1 22
-21 0 -19 8 -25 42 -32 49 -10 57 -23 37 -61 -17 -33 -14 -38 23 -37 15 0 45
-9 65 -19 44 -23 62 -45 27 -34 -79 26 -139 25 -139 -1 0 -8 -6 -14 -12 -15
-9 0 -9 -2 1 -6 8 -3 27 -21 44 -39 16 -19 35 -34 41 -34 20 0 84 -85 73 -96
-4 -5 -128 82 -164 114 -24 22 -37 18 -24 -7 14 -28 -8 -172 -36 -229 -17 -36
-23 -63 -19 -82 3 -18 1 -31 -7 -34 -9 -5 -9 -8 2 -12 10 -5 10 -8 1 -14 -9
-5 -8 -16 4 -45 26 -62 20 -73 -18 -36 -19 18 -36 29 -39 24 -4 -5 0 -31 8
-58 21 -68 20 -124 -2 -132 -33 -13 -55 -40 -49 -61 4 -13 1 -22 -9 -26 -8 -3
-15 -13 -15 -23 0 -10 -7 -27 -16 -38 -17 -23 -32 -75 -38 -135 -3 -31 -12
-51 -28 -65 -12 -11 -41 -47 -62 -79 -36 -55 -43 -79 -45 -153 -1 -13 -7 -23
-15 -23 -16 0 -46 42 -46 65 0 8 -4 15 -10 15 -5 0 -10 -6 -10 -14 0 -17 -33
-31 -38 -16 -2 6 -17 -16 -33 -49 -16 -34 -36 -61 -44 -61 -17 0 -40 33 -49
70 -3 14 -16 38 -28 53 -29 36 -55 28 -64 -18 -4 -24 -11 -33 -24 -32 -13 1
-19 12 -24 45 -3 23 -16 57 -30 75 -13 18 -21 38 -19 44 3 7 -4 16 -14 20 -43
17 -103 65 -103 84 0 11 -4 17 -10 14 -5 -3 -11 4 -11 17 -1 13 -3 32 -5 43
-1 11 -5 40 -8 65 -9 81 -27 173 -53 275 -14 55 -28 110 -30 123 -3 12 -9 22
-13 22 -5 0 -12 15 -16 32 -3 18 -21 64 -38 103 -18 38 -39 85 -47 103 -7 17
-17 32 -21 32 -5 0 -8 10 -8 23 0 12 -7 35 -15 50 -20 39 -39 143 -30 164 4
10 7 34 6 54 -3 41 16 61 58 63 22 1 27 4 19 14 -7 8 -7 12 1 12 7 0 10 4 7 9
-3 5 8 14 24 21 17 7 30 18 30 25 0 12 15 22 34 23 5 0 13 7 18 16 5 9 18 16
28 16 11 0 20 5 20 11 0 5 5 7 10 4 6 -3 10 1 10 9 0 9 6 13 13 10 8 -3 28 8
45 24 18 17 52 34 84 41 l53 13 -1 82 c-1 105 2 116 32 116 23 0 24 -3 24 -59
0 -80 5 -91 38 -82 23 6 29 16 39 61 6 29 19 57 27 62 9 5 16 15 16 22 0 8 7
20 16 27 14 11 18 10 30 -6 8 -10 17 -35 20 -54 13 -72 66 -112 111 -83 14 9
35 96 31 132 -3 32 9 51 27 43 8 -3 15 -7 15 -9z m300 -114 c-5 -25 -9 -71
-10 -102 0 -61 -15 -86 -26 -43 -8 33 3 118 22 163 19 46 24 38 14 -18z
m-3923 -226 c18 -14 33 -30 33 -36 0 -10 -42 13 -70 39 -8 8 -24 20 -35 29
-18 13 -18 13 10 3 16 -6 45 -22 62 -35z m-97 -144 c0 -20 -44 1 -54 25 -5 14
-2 14 24 0 17 -9 30 -20 30 -25z m70 -52 c0 -4 13 -8 29 -8 17 0 33 -4 36 -10
14 -22 -45 -8 -83 20 -49 35 -56 49 -12 23 17 -9 30 -21 30 -25z m4280 -185
c0 -7 -61 31 -73 46 -7 8 7 2 31 -14 23 -15 42 -30 42 -32z m-4291 -37 c-92
-92 -121 -108 -44 -24 58 63 107 107 119 108 5 0 -29 -38 -75 -84z m4399 -38
c19 -19 14 -30 -8 -18 -11 6 -20 15 -20 20 0 14 14 12 28 -2z m5887 -162 c28
-3 196 -7 375 -7 179 -1 329 -4 334 -7 5 -3 33 -5 63 -4 29 0 53 -1 53 -3 0
-2 -3 -10 -6 -19 -7 -18 -59 -22 -69 -6 -3 6 -11 10 -16 10 -6 0 -8 -4 -4 -10
3 -5 -99 -10 -272 -11 -418 -3 -519 -5 -535 -15 -8 -5 -87 -85 -175 -179 -88
-93 -207 -213 -264 -265 -57 -52 -114 -105 -126 -117 -12 -13 -29 -23 -37 -23
-33 0 20 64 180 217 152 144 300 304 383 411 22 28 39 41 50 38 9 -3 39 -8 66
-10z m-5925 -6 c0 -5 -5 -10 -11 -10 -5 0 -7 5 -4 10 3 6 8 10 11 10 2 0 4 -4
4 -10z m-6105 -97 c83 -54 291 -212 336 -254 37 -35 29 -55 -19 -44 -30 6
-164 94 -257 168 -66 53 -185 169 -185 180 0 18 56 -5 125 -50z m6314 -71 c18
-18 31 -35 29 -37 -2 -3 -26 19 -54 47 -52 55 -33 47 25 -10z m441 -72 c0 -5
-7 -10 -15 -10 -8 0 -15 5 -15 10 0 6 7 10 15 10 8 0 15 -4 15 -10z m1965 -2
c25 -11 35 -50 16 -62 -11 -7 -58 29 -71 55 -9 16 -7 19 9 19 11 0 32 -5 46
-12z m3250 -89 c50 -46 61 -80 45 -137 -18 -70 -103 -125 -138 -90 -20 20 -14
28 14 18 34 -13 31 -15 55 32 30 60 30 135 0 159 -50 41 -73 18 -75 -76 -1
-31 -5 -49 -12 -48 -7 1 -9 -8 -6 -24 6 -34 -11 -23 -31 19 -12 25 -13 44 -7
78 5 25 9 48 10 52 1 16 57 58 78 58 12 0 42 -18 67 -41z m-6225 -23 c0 -8 -4
-17 -9 -21 -12 -7 -24 12 -16 25 9 15 25 12 25 -4z m454 -3 c21 -14 -26 -22
-78 -13 -96 15 -103 32 -11 24 44 -3 84 -8 89 -11z m1937 -16 c-8 -8 -11 -7
-11 4 0 20 13 34 18 19 3 -7 -1 -17 -7 -23z m-2446 -57 c7 -11 -12 -79 -26
-94 -16 -18 -22 25 -9 65 13 39 23 48 35 29z m395 -76 c0 -2 -11 -4 -25 -4
-14 0 -25 4 -25 9 0 4 11 6 25 3 14 -2 25 -6 25 -8z m-2840 -44 c0 -5 -2 -10
-4 -10 -3 0 -8 5 -11 10 -3 6 -1 10 4 10 6 0 11 -4 11 -10z m2588 -49 c3 -16
-1 -22 -10 -19 -7 3 -15 15 -16 27 -3 16 1 22 10 19 7 -3 15 -15 16 -27z
m-2433 -79 c-3 -3 -11 0 -18 7 -9 10 -8 11 6 5 10 -3 15 -9 12 -12z m50 -32
c3 -6 -1 -7 -9 -4 -18 7 -21 14 -7 14 6 0 13 -4 16 -10z m-3098 -92 c-3 -8 -6
-5 -6 6 -1 11 2 17 5 13 3 -3 4 -12 1 -19z m3713 -2 c0 -3 -4 -8 -10 -11 -5
-3 -10 -1 -10 4 0 6 5 11 10 11 6 0 10 -2 10 -4z m-3700 -63 c1 -27 4 -66 9
-88 4 -22 4 -51 1 -65 -5 -19 -8 -13 -13 30 -13 119 -15 170 -6 170 5 0 9 -21
9 -47z m3770 37 c0 -5 -5 -10 -11 -10 -5 0 -7 5 -4 10 3 6 8 10 11 10 2 0 4
-4 4 -10z m-70 -20 c0 -5 -2 -10 -4 -10 -3 0 -8 5 -11 10 -3 6 -1 10 4 10 6 0
11 -4 11 -10z m182 -72 c-7 -7 -12 -8 -12 -2 0 14 12 26 19 19 2 -3 -1 -11 -7
-17z m-312 -8 c0 -5 -2 -10 -4 -10 -3 0 -8 5 -11 10 -3 6 -1 10 4 10 6 0 11
-4 11 -10z m75 -40 c3 -5 1 -10 -4 -10 -6 0 -11 5 -11 10 0 6 2 10 4 10 3 0 8
-4 11 -10z m-3600 -215 c127 -810 277 -1337 585 -2060 21 -49 70 -164 108
-255 65 -153 154 -340 206 -435 13 -22 59 -107 103 -190 111 -207 167 -303
233 -400 15 -22 56 -85 92 -140 73 -114 142 -219 251 -387 70 -106 167 -265
167 -273 0 -1 24 -42 54 -91 30 -49 80 -132 112 -184 69 -115 219 -332 257
-373 15 -16 27 -31 27 -33 0 -2 8 -12 18 -22 98 -103 302 -387 302 -420 0 -5
12 -22 26 -37 36 -39 42 -60 50 -174 5 -76 4 -101 -5 -101 -7 0 -47 35 -89 78
-97 97 -197 230 -450 599 -65 95 -380 572 -441 668 -229 361 -512 817 -583
940 -202 352 -613 1321 -757 1785 -69 220 -98 331 -155 588 -52 229 -71 341
-112 632 -35 255 -46 382 -36 408 9 25 18 -6 37 -123z m3555 55 c0 -5 6 -10
13 -10 8 0 19 -11 25 -24 12 -26 62 -68 114 -95 44 -22 148 -101 148 -112 0
-5 11 -11 25 -15 14 -3 25 -10 25 -14 0 -12 61 -41 71 -34 5 3 9 1 9 -4 0 -6
28 -25 63 -42 34 -18 73 -40 87 -50 14 -9 52 -30 85 -47 119 -59 200 -105 221
-124 12 -12 35 -19 57 -19 20 0 37 -4 37 -9 0 -15 -47 -22 -75 -11 -15 6 -31
7 -36 4 -6 -3 -21 6 -34 20 -13 14 -31 26 -40 26 -13 0 -12 -5 6 -30 l22 -29
-12 -293 c-6 -161 -16 -486 -21 -723 -5 -236 -14 -482 -19 -545 -18 -206 -22
-350 -12 -350 6 0 7 7 4 17 -4 10 -2 14 4 10 15 -10 23 27 23 109 0 83 8 134
22 134 10 0 9 -25 -7 -195 -3 -33 -7 -91 -9 -130 -8 -173 -19 -264 -30 -258
-6 4 -5 -1 3 -10 10 -12 10 -17 2 -17 -7 0 -11 -10 -10 -22 2 -13 0 -29 -4
-35 -5 -7 -4 -13 2 -13 17 0 -9 -53 -47 -95 -7 -8 -8 -16 -3 -19 8 -5 7 -27
-5 -64 -6 -19 -43 4 -54 34 -9 23 -30 34 -30 15 0 -5 -3 -16 -6 -25 -4 -10 -1
-16 10 -16 10 0 13 -6 10 -17 -12 -38 -28 -63 -39 -63 -7 0 -31 -51 -54 -112
-44 -120 -112 -254 -126 -252 -5 1 -14 10 -20 20 -5 10 -21 36 -34 59 -80 131
-172 357 -207 501 -55 234 -110 717 -119 1047 -7 231 -9 248 -25 244 -32 -8
-43 9 -46 75 -2 34 -5 100 -8 146 -2 45 -1 82 3 82 3 0 17 -7 29 -16 22 -15
22 -14 22 25 0 28 -4 41 -13 41 -20 0 -44 30 -55 70 -6 19 -15 49 -20 65 -4
17 -6 41 -2 55 5 23 8 20 33 -33 16 -32 32 -55 37 -52 14 9 12 43 -2 48 -9 2
-10 8 -3 18 6 8 10 25 9 39 -1 14 -2 80 -3 147 -1 116 -2 123 -21 120 -31 -5
-35 -15 -15 -37 15 -16 19 -39 20 -120 1 -55 -1 -100 -5 -100 -17 0 -39 29
-50 65 -7 22 -19 47 -27 56 -22 25 -28 65 -28 184 0 91 3 110 15 110 10 0 14
-8 12 -27 -3 -31 8 -40 57 -44 l36 -3 0 314 c0 340 3 359 47 318 24 -21 306
-203 315 -203 3 0 -13 15 -35 33 -22 17 -50 45 -62 60 -12 15 -34 33 -49 40
-31 14 -230 217 -213 217 7 0 12 -4 12 -10z m1421 -43 c-7 -7 -15 -6 -25 3
-22 17 -9 32 16 19 14 -8 17 -14 9 -22z m178 -3 c19 -18 8 -28 -21 -20 -35 9
-51 22 -43 35 8 14 43 5 64 -15z m-3045 -396 c7 -18 25 -46 40 -63 50 -57 28
-62 -32 -7 -32 30 -42 46 -42 70 0 41 16 41 34 0z m7432 -193 c13 -34 -11 -64
-123 -155 -65 -52 -172 -142 -238 -200 -257 -225 -398 -336 -452 -359 -28 -11
-57 -10 -201 8 -93 12 -197 21 -230 21 -53 0 -62 3 -62 18 0 27 48 92 76 103
41 15 154 10 239 -11 114 -29 187 -35 216 -20 32 17 89 64 319 265 256 224
289 251 363 301 68 47 85 52 93 29z m-5028 -110 c17 -49 33 -110 37 -135 4
-25 15 -71 26 -102 16 -45 18 -62 9 -78 -17 -31 -27 -17 -34 47 -4 32 -13 72
-22 88 -15 28 -64 238 -64 273 0 31 18 -4 48 -93z m-6334 11 c60 -40 228 -179
347 -287 102 -93 253 -220 323 -272 56 -42 70 -61 62 -83 -20 -51 -172 45
-411 260 -219 196 -425 393 -425 407 0 20 56 7 104 -25z m960 -586 c16 -15
-47 -44 -106 -48 -46 -4 -63 -1 -78 13 -26 23 -17 35 28 36 20 0 46 4 57 8 22
9 85 3 99 -9z m5344 -246 c4 -71 -4 -104 -23 -104 -12 0 -15 15 -15 74 0 41
-3 82 -6 90 -5 13 -2 15 17 7 21 -7 24 -16 27 -67z m2712 -261 c-23 -65 -56
-156 -72 -203 -150 -423 -469 -1084 -766 -1590 -93 -158 -317 -495 -514 -772
-70 -98 -179 -258 -244 -355 -334 -506 -390 -588 -467 -684 -114 -141 -166
-185 -183 -158 -8 13 -20 108 -34 268 -5 68 -15 130 -21 138 -9 9 -8 17 1 28
18 21 37 19 51 -7 16 -30 39 -188 39 -270 0 -56 3 -66 15 -62 8 4 15 14 15 23
0 10 9 27 21 39 23 26 191 231 259 318 45 57 112 159 191 289 24 39 156 239
293 445 572 858 581 871 723 1115 162 277 335 618 468 920 68 154 234 566 247
613 5 19 12 31 15 28 3 -3 -14 -58 -37 -123z"/>
<path d="M13058 24463 c6 -2 18 -2 25 0 6 3 1 5 -13 5 -14 0 -19 -2 -12 -5z"/>
<path d="M17889 22310 c-14 -10 -86 -55 -160 -100 -148 -90 -192 -124 -84 -65
107 57 299 187 273 185 -2 0 -14 -9 -29 -20z"/>
<path d="M17846 21965 c-11 -8 -15 -15 -9 -15 6 0 16 7 23 15 16 19 11 19 -14
0z"/>
<path d="M17250 16891 c-16 -7 -25 -31 -11 -31 10 0 36 29 30 34 -2 2 -11 1
-19 -3z"/>
<path d="M18101 18174 c0 -11 3 -14 6 -6 3 7 2 16 -1 19 -3 4 -6 -2 -5 -13z"/>
<path d="M24706 17153 c-6 -14 -5 -15 5 -6 7 7 10 15 7 18 -3 3 -9 -2 -12 -12z"/>
<path d="M17700 16185 c0 -8 5 -15 10 -15 6 0 10 7 10 15 0 8 -4 15 -10 15 -5
0 -10 -7 -10 -15z"/>
<path d="M17260 15190 c0 -4 9 -10 20 -13 11 -3 20 -2 20 3 0 4 -9 10 -20 13
-11 3 -20 2 -20 -3z"/>
<path d="M17876 13454 c-4 -9 -4 -19 -1 -22 2 -3 7 3 11 12 4 9 4 19 1 22 -2
3 -7 -3 -11 -12z"/>
<path d="M14598 29433 c7 -3 16 -2 19 1 4 3 -2 6 -13 5 -11 0 -14 -3 -6 -6z"/>
</g>
</svg>
